<svg xmlns="http://www.w3.org/2000/svg" width="168" height="88" fill="none">
  <rect width="167" height="87" x=".5" y=".5" stroke="#8E8F99" rx="3.5"/>
  <g fill="#8E8F99">
    <path d="M56.078 37.518h-.003c-2.385 0-4.32 1.743-4.32 3.894v.003c0 2.15 1.935 3.894 4.32 3.894h.003c2.386 0 4.32-1.743 4.32-3.894v-.003c0-2.15-1.934-3.894-4.32-3.894ZM87.961 36.273c-.006-2.988-1.326-5.85-3.668-7.964-2.343-2.112-5.519-3.302-8.832-3.309-3.314.005-6.491 1.195-8.835 3.308-2.344 2.113-3.664 4.977-3.671 7.965v16.474s25.004-2.51 25.006-16.471v-.003ZM43 58.154c.006 2.079.924 4.071 2.554 5.541 1.63 1.47 3.84 2.299 6.145 2.305 2.305-.006 4.514-.834 6.144-2.304 1.63-1.47 2.548-3.46 2.555-5.54V46.695S43 48.442 43 58.154Zm8.699 2.054c-.45 0-.891-.12-1.266-.346a2.116 2.116 0 0 1-.839-.922 1.867 1.867 0 0 1-.13-1.186 2 2 0 0 1 .624-1.052 2.364 2.364 0 0 1 1.167-.562c.441-.08.9-.039 1.316.117.416.155.772.419 1.022.756.25.338.384.735.384 1.141.001.27-.057.538-.171.789-.114.25-.282.477-.493.669a2.308 2.308 0 0 1-.74.447 2.497 2.497 0 0 1-.874.157v-.008ZM67.609 56.515v4.266h-.879v-4.266h.879Zm1.7 1.822v.686h-1.94v-.686h1.94Zm.204-1.822v.688H67.37v-.688h2.144Zm4.014 2.033v.202c0 .325-.044.615-.132.873a1.919 1.919 0 0 1-.372.66c-.16.18-.352.317-.574.413a1.83 1.83 0 0 1-.736.143c-.267 0-.512-.048-.735-.143a1.648 1.648 0 0 1-.574-.413 1.93 1.93 0 0 1-.378-.66 2.697 2.697 0 0 1-.132-.873v-.202c0-.326.044-.617.132-.873.088-.258.212-.477.372-.66.162-.18.353-.32.574-.415.223-.096.468-.144.736-.144.27 0 .514.048.735.144.222.096.414.234.574.416.162.182.287.401.375.66.09.255.135.546.135.872Zm-.888.202v-.208c0-.226-.02-.425-.061-.597a1.295 1.295 0 0 0-.182-.434.785.785 0 0 0-.293-.264.837.837 0 0 0-.395-.09c-.149 0-.28.03-.396.09a.792.792 0 0 0-.29.264 1.334 1.334 0 0 0-.179.434 2.587 2.587 0 0 0-.061.597v.208c0 .225.02.424.061.598.041.172.102.317.182.437a.81.81 0 0 0 .293.266c.115.06.247.09.395.09.149 0 .28-.03.396-.09a.787.787 0 0 0 .29-.267 1.37 1.37 0 0 0 .179-.436c.04-.174.061-.373.061-.598Zm3.741.914a.563.563 0 0 0-.035-.205.387.387 0 0 0-.123-.17 1.09 1.09 0 0 0-.255-.155 3.605 3.605 0 0 0-.424-.158 5.377 5.377 0 0 1-.551-.211 2.266 2.266 0 0 1-.457-.273 1.228 1.228 0 0 1-.31-.366 1.01 1.01 0 0 1-.112-.483 1 1 0 0 1 .117-.483c.078-.147.188-.272.328-.375.14-.106.307-.187.498-.244.194-.056.405-.085.636-.085.314 0 .589.057.823.17.234.114.416.269.545.466.13.197.196.423.196.677h-.873a.659.659 0 0 0-.079-.328.535.535 0 0 0-.234-.226.837.837 0 0 0-.393-.082.91.91 0 0 0-.38.07.508.508 0 0 0-.23.185.454.454 0 0 0-.075.258c0 .072.017.137.052.196a.594.594 0 0 0 .165.164c.072.05.16.099.266.144.106.045.228.089.366.132.233.07.437.149.613.237.177.088.326.186.445.296.12.11.209.233.27.372.06.139.09.296.09.471a1.024 1.024 0 0 1-.422.87c-.136.102-.3.18-.489.232a2.37 2.37 0 0 1-.636.08c-.21 0-.419-.028-.624-.083a1.896 1.896 0 0 1-.56-.255 1.286 1.286 0 0 1-.398-.433c-.1-.176-.149-.384-.149-.624h.882c0 .133.02.245.061.337a.562.562 0 0 0 .173.222.741.741 0 0 0 .27.123c.105.026.22.038.345.038a.937.937 0 0 0 .375-.064.462.462 0 0 0 .293-.437Zm3.384-3.149v4.266h-.876v-4.266h.876Zm1.313 0v.688h-3.48v-.688h3.48Zm3.363 3.58v.686h-2.27v-.686h2.27Zm-1.983-3.58v4.266h-.88v-4.266h.88Zm1.687 1.737v.668h-1.975v-.668h1.975Zm.293-1.737v.688h-2.268v-.688h2.268Zm.516 0h1.59c.327 0 .607.049.841.146.237.098.418.243.545.434.127.191.19.427.19.706 0 .229-.038.425-.117.589a1.101 1.101 0 0 1-.325.407 1.688 1.688 0 0 1-.489.258l-.278.147h-1.383l-.006-.686h1.028a.804.804 0 0 0 .384-.082.538.538 0 0 0 .229-.229.704.704 0 0 0 .079-.34.773.773 0 0 0-.076-.354.515.515 0 0 0-.232-.229.855.855 0 0 0-.39-.079h-.712v3.578h-.878v-4.266Zm2.384 4.266-.972-1.902.928-.006.985 1.867v.04h-.94Zm4.615-1.52h-1.087v-.687h1.087a.89.89 0 0 0 .41-.081.526.526 0 0 0 .231-.235.86.86 0 0 0 0-.691.592.592 0 0 0-.231-.264.76.76 0 0 0-.41-.1h-.783v3.578h-.879v-4.266h1.662c.334 0 .62.06.858.182.24.119.424.284.55.495.128.21.191.452.191.723 0 .276-.063.514-.19.715-.127.201-.31.357-.55.466-.24.11-.525.164-.86.164Zm5.068.834v.686h-2.27v-.686h2.27Zm-1.983-3.58v4.266h-.88v-4.266h.88Zm1.687 1.737v.668H94.75v-.668h1.975Zm.293-1.737v.688H94.75v-.688h2.267Zm2.482 0v4.266h-.876v-4.266h.876Zm1.312 0v.688h-3.48v-.688h3.48Zm3.363 3.58v.686h-2.27v-.686h2.27Zm-1.983-3.58v4.266h-.879v-4.266h.879Zm1.687 1.737v.668h-1.974v-.668h1.974Zm.293-1.737v.688h-2.267v-.688h2.267Zm.516 0h1.591c.326 0 .606.049.841.146.236.098.418.243.545.434.127.191.19.427.19.706 0 .229-.039.425-.117.589a1.107 1.107 0 0 1-.325.407 1.691 1.691 0 0 1-.49.258l-.278.147h-1.383l-.006-.686h1.029a.8.8 0 0 0 .383-.082.538.538 0 0 0 .229-.229.702.702 0 0 0 .079-.34.77.77 0 0 0-.076-.354.514.514 0 0 0-.232-.229.851.851 0 0 0-.389-.079h-.712v3.578h-.879v-4.266Zm2.385 4.266-.973-1.902.929-.006.984 1.867v.04h-.94Zm3.679-1.117a.553.553 0 0 0-.035-.205.38.38 0 0 0-.123-.17 1.066 1.066 0 0 0-.255-.155 3.613 3.613 0 0 0-.424-.158 5.345 5.345 0 0 1-.551-.211 2.269 2.269 0 0 1-.457-.273 1.225 1.225 0 0 1-.311-.366 1.012 1.012 0 0 1-.111-.483c0-.178.039-.339.117-.483.078-.147.188-.272.328-.375.141-.106.307-.187.498-.244.194-.056.406-.085.636-.085.314 0 .589.057.823.17.235.114.416.269.545.466.131.197.196.423.196.677h-.873a.656.656 0 0 0-.079-.328.533.533 0 0 0-.234-.226.838.838 0 0 0-.393-.082.913.913 0 0 0-.381.07.511.511 0 0 0-.228.185.453.453 0 0 0-.076.258c0 .072.017.137.053.196a.583.583 0 0 0 .164.164c.072.05.161.099.266.144.106.045.228.089.366.132.233.07.437.149.613.237.177.088.326.186.445.296.119.11.209.233.27.372.06.139.09.296.09.471 0 .186-.036.352-.108.499a1.02 1.02 0 0 1-.314.372 1.462 1.462 0 0 1-.489.231c-.189.053-.401.08-.636.08-.21 0-.418-.028-.624-.083a1.894 1.894 0 0 1-.559-.255 1.291 1.291 0 0 1-.399-.433 1.252 1.252 0 0 1-.149-.624h.882c0 .133.02.245.061.337a.565.565 0 0 0 .173.222.739.739 0 0 0 .27.123c.105.026.22.038.345.038a.932.932 0 0 0 .375-.064.462.462 0 0 0 .293-.437Z"/>
  </g>
</svg>
