<svg xmlns="http://www.w3.org/2000/svg" aria-hidden="true" style="position:absolute;width:0;height:0;overflow:hidden">
  <defs>
    <symbol id="group-6" viewBox="0 0 61 32">
      <path  d="M31.102 15.798a1.072 1.072 0 0 1-.22-.724v-1.05c0-.322.073-.567.219-.734s.397-.251.753-.25c.334 0 .572.071.712.214a.866.866 0 0 1 .21.628v.247h-.598v-.25a1.34 1.34 0 0 0-.017-.245.24.24 0 0 0-.085-.145.346.346 0 0 0-.217-.057.368.368 0 0 0-.228.06.28.28 0 0 0-.099.16 1.265 1.265 0 0 0-.024.26v1.275a.654.654 0 0 0 .077.358c.03.038.071.068.119.087s.102.026.154.02a.325.325 0 0 0 .212-.058.255.255 0 0 0 .089-.155c.014-.085.02-.17.019-.255v-.259h.598v.236a.958.958 0 0 1-.207.66c-.137.156-.371.234-.716.234s-.604-.083-.752-.256zM33.591 15.808c-.151-.163-.227-.402-.227-.717v-1.105c0-.312.076-.548.227-.708s.404-.24.758-.239c.352 0 .603.08.754.239s.228.396.228.708v1.105c0 .312-.077.551-.23.716s-.404.247-.752.247-.605-.083-.758-.246zm1.037-.265a.617.617 0 0 0 .072-.327v-1.353a.597.597 0 0 0-.071-.321c-.03-.039-.073-.069-.122-.088s-.104-.025-.158-.019c-.054-.006-.108 0-.158.019s-.092.049-.123.088a.593.593 0 0 0-.072.32v1.359a.599.599 0 0 0 .072.327c.035.034.078.062.126.081a.421.421 0 0 0 .308 0 .384.384 0 0 0 .126-.081v-.006zM36.05 13.071h.644l.484 2.038.495-2.038h.627l.063 2.942H37.9l-.049-2.045-.478 2.045h-.371l-.495-2.052-.046 2.052h-.468l.058-2.942zM39.085 13.071h1.003c.577 0 .867.278.867.835 0 .533-.304.8-.912.799h-.342v1.308h-.619l.004-2.942zm.856 1.258c.061.007.123.002.182-.014s.113-.043.158-.079a.476.476 0 0 0 .089-.332.96.96 0 0 0-.029-.267c-.009-.029-.024-.057-.046-.081s-.048-.044-.078-.059a.631.631 0 0 0-.276-.047h-.24v.879h.24zM41.847 13.071h.665l.682 2.942h-.577l-.135-.678h-.593l-.139.678h-.585l.682-2.942zm.568 1.923-.231-1.235-.232 1.235h.463zM43.745 13.071h.433l.829 1.678v-1.678h.514v2.942h-.412l-.835-1.752v1.752h-.531l.001-2.942zM46.725 14.892l-.689-1.816h.581l.421 1.167.395-1.167h.568l-.681 1.816v1.122h-.594v-1.122zM32.057 17.299v.154h-.505v1.195h-.212v-1.195h-.508v-.154h1.224zM33.641 18.649h-.163a.073.073 0 0 1-.046-.013.073.073 0 0 1-.027-.031l-.146-.32h-.701l-.146.32a.09.09 0 0 1-.022.036.073.073 0 0 1-.046.013h-.163l.619-1.349h.215l.626 1.344zm-1.025-.501h.584l-.248-.549a1.018 1.018 0 0 1-.046-.127l-.024.072-.022.057-.245.548zM34.708 18.516a.659.659 0 0 0 .215-.016.692.692 0 0 0 .172-.058v-.303h-.248c-.006 0-.012 0-.018-.002s-.011-.005-.015-.008-.007-.007-.009-.011-.003-.009-.003-.014V18h.48v.517a.907.907 0 0 1-.261.11 1.143 1.143 0 0 1-.155.028c-.06.006-.12.009-.181.009a.936.936 0 0 1-.312-.05.758.758 0 0 1-.248-.141.66.66 0 0 1-.16-.214.678.678 0 0 1-.057-.28.624.624 0 0 1 .216-.496.746.746 0 0 1 .248-.14 1.06 1.06 0 0 1 .332-.05c.058 0 .115.004.172.012a.805.805 0 0 1 .379.157l-.059.083c-.005.008-.012.014-.02.018s-.018.007-.028.007a.07.07 0 0 1-.038-.011.936.936 0 0 1-.061-.032.735.735 0 0 0-.354-.078.738.738 0 0 0-.239.037.485.485 0 0 0-.297.275.634.634 0 0 0 0 .45.53.53 0 0 0 .305.277.722.722 0 0 0 .245.027zM36.681 18.495h.676v.154h-.883V17.3h.212l-.005 1.195zM38.061 18.649h-.212V17.3h.212v1.349zM38.848 17.306a.11.11 0 0 1 .032.025l.905 1.017a.384.384 0 0 1 0-.048v-1.006h.184v1.355h-.107a.102.102 0 0 1-.046-.008.106.106 0 0 1-.033-.026l-.904-1.016v1.05h-.177V17.3h.11c.012 0 .024.002.035.006zM41.529 17.299v.148h-.751v.445h.608v.143h-.608v.46h.751v.148h-.968v-1.346h.968zM19.344 8.967l9.401 2.303v8.071l-9.401-2.302V8.967zm-.603-.688v9.152l10.605 2.599v-9.151l-10.605-2.6z" />
      <path d="m24.425 24.279-10.607-2.601v-9.151l10.607 2.6v9.152zM18.917 8.863l9.278 2.274-3.946 3.406-9.279-2.276 3.947-3.405zm-.176-.584-4.923 4.248 10.607 2.6 4.921-4.248-10.605-2.6zM25.021 23.764l4.325-3.733-4.325-1.061v4.793z" />
    </symbol>
    <symbol id="icon-Client-5-2" viewBox="0 0 61 32">
      <path  d="M21.379 21.954a.509.509 0 0 1 .134.352c.005.083-.012.167-.048.244s-.091.146-.16.201a.967.967 0 0 1-.605.162h-1.064v-2.23h1.042c.206-.012.41.04.577.148.067.051.121.115.156.187s.051.151.046.23a.484.484 0 0 1-.121.341.576.576 0 0 1-.317.174.62.62 0 0 1 .359.191zm-1.248-.337h.445a.457.457 0 0 0 .283-.074c.033-.027.059-.061.076-.099s.023-.078.02-.119a.258.258 0 0 0-.094-.218.465.465 0 0 0-.292-.075h-.438v.585zm.772.855c.036-.028.064-.063.082-.102s.026-.082.023-.124c.003-.043-.006-.086-.024-.126s-.047-.075-.083-.103a.497.497 0 0 0-.302-.081h-.467v.613h.473a.51.51 0 0 0 .299-.077zM23.509 22.912l-.58-.872h-.218v.872h-.499v-2.23h.944a.998.998 0 0 1 .657.19c.132.121.212.28.224.45s-.042.337-.154.473a.796.796 0 0 1-.45.227l.617.891h-.542zm-.798-1.175h.408c.283 0 .425-.113.425-.338.003-.046-.005-.092-.023-.135s-.046-.082-.081-.115a.477.477 0 0 0-.321-.09h-.413l.005.679zM26.234 22.464h-.993l-.175.449h-.523l.912-2.205h.565l.909 2.205h-.523l-.172-.449zm-.133-.338-.363-.941-.363.941h.726zM29.645 22.913h-.495l-1.11-1.516v1.516h-.494v-2.23h.494l1.11 1.525v-1.525h.495v2.23zM32.469 22.379a1.024 1.024 0 0 1-.448.393 1.601 1.601 0 0 1-.696.141h-.881v-2.23h.881c.241-.006.48.041.696.137.189.086.346.222.448.389a1.19 1.19 0 0 1 0 1.17zm-.566-.054c.141-.148.219-.337.219-.532s-.078-.384-.219-.532a.928.928 0 0 0-.62-.19h-.344v1.443h.344a.919.919 0 0 0 .62-.19zM26.543 8.279s6.388 2.171 6.252 5.313v5.314s-6.383-2.172-6.25-5.314l-.002-5.313zM38.487 17.662a9.378 9.378 0 0 1 4.059-1.346v-1.663c-1.679.582-3.102 1.638-4.059 3.01z"/>
      <path  d="M37.762 18.163c.987-1.79 2.699-3.171 4.783-3.86V9.51s-9.097 3.093-8.905 7.567v7.566s.405-.138 1.043-.398c0-.242 0-.486.029-.731.188-2.077 1.285-4.002 3.05-5.351z"/>
      <path  d="M36.897 20.973a7.108 7.108 0 0 1 .319-1.549c-1.099 1.165-1.764 2.611-1.902 4.134a6.23 6.23 0 0 0-.024.436 27.346 27.346 0 0 0 1.75-.83 7.081 7.081 0 0 1-.142-2.191zM37.259 21.001c-.06.663-.023 1.33.113 1.984 2.485-1.339 5.278-3.408 5.171-5.908v-.218c-1.776.179-3.437.878-4.729 1.989a6.853 6.853 0 0 0-.554 2.153z" />
    </symbol>
    <symbol id="icon-Client-4-2" viewBox="0 0 61 32">
      <path  d="M20.392 13.643h-.001c-.867 0-1.571.634-1.571 1.416v.001c0 .782.703 1.416 1.571 1.416h.001c.867 0 1.571-.634 1.571-1.416v-.001c0-.782-.703-1.416-1.571-1.416zM31.986 13.19c-.002-1.086-.482-2.128-1.334-2.896s-2.007-1.201-3.212-1.203c-1.205.002-2.361.434-3.213 1.203s-1.332 1.81-1.335 2.896v5.991s9.092-.913 9.093-5.99v-.001zM15.636 21.147c.002.756.336 1.48.929 2.015s1.396.836 2.234.838c.838-.002 1.641-.303 2.234-.838s.927-1.259.929-2.014V16.98s-6.327.636-6.327 4.167zm3.164.747c-.164 0-.324-.044-.46-.126s-.242-.199-.305-.335-.079-.287-.047-.432c.032-.145.111-.278.227-.382s.263-.176.424-.204c.161-.029.327-.014.479.043s.281.152.372.275a.696.696 0 0 1-.101.945c-.077.07-.168.125-.269.163s-.209.057-.318.057v-.003zM24.585 20.551v1.551h-.32v-1.551h.32zm.618.663v.249h-.705v-.249h.705zm.075-.663v.25h-.78v-.25h.78zm1.459.739v.074c0 .118-.016.224-.048.317s-.077.174-.135.24c-.058.065-.128.115-.209.15s-.169.052-.267.052c-.097 0-.186-.017-.267-.052s-.15-.085-.209-.15c-.059-.066-.105-.146-.137-.24s-.048-.2-.048-.317v-.074c0-.119.016-.224.048-.317s.077-.174.135-.24c.059-.066.129-.116.209-.151s.17-.052.267-.052c.098 0 .187.017.267.052s.151.085.209.151c.059.066.104.146.136.24s.049.199.049.317zm-.323.074v-.076c0-.082-.007-.155-.022-.217s-.037-.115-.066-.158-.065-.075-.107-.096c-.042-.022-.09-.033-.144-.033s-.102.011-.144.033c-.041.021-.076.053-.105.096s-.05.095-.065.158a.941.941 0 0 0-.022.217v.076c0 .082.007.154.022.217s.037.115.066.159a.29.29 0 0 0 .251.13.278.278 0 0 0 .249-.13c.028-.043.05-.096.065-.159s.022-.136.022-.217zm1.361.332c0-.028-.004-.053-.013-.075s-.023-.043-.045-.062c-.022-.019-.053-.038-.093-.056s-.091-.038-.154-.058c-.07-.023-.137-.048-.2-.077s-.118-.061-.166-.099c-.048-.038-.085-.083-.113-.133s-.04-.109-.04-.176c0-.065.014-.123.043-.176s.068-.099.119-.136c.051-.038.111-.068.181-.088s.147-.031.231-.031c.114 0 .214.021.299.062s.151.098.198.169a.433.433 0 0 1 .071.246h-.317c0-.045-.01-.085-.029-.119s-.047-.062-.085-.082a.303.303 0 0 0-.143-.03c-.055 0-.102.009-.138.026s-.065.039-.083.067a.17.17 0 0 0-.028.094c0 .026.006.05.019.071s.033.041.06.06.059.036.097.052c.038.016.083.032.133.048.084.026.159.054.223.086s.119.068.162.108c.043.04.076.085.098.135s.033.108.033.172a.368.368 0 0 1-.153.316c-.05.037-.109.065-.178.084a.869.869 0 0 1-.458-.001.671.671 0 0 1-.203-.093c-.06-.041-.109-.094-.145-.158s-.054-.14-.054-.227h.321c0 .048.007.089.022.122s.036.06.063.081c.028.021.06.035.098.045a.496.496 0 0 0 .262-.009.169.169 0 0 0 .107-.159zm1.23-1.145v1.551h-.319v-1.551h.319zm.477 0v.25h-1.266v-.25h1.266zm1.223 1.302v.249h-.826v-.249h.826zm-.721-1.302v1.551h-.32v-1.551h.32zm.614.632v.243h-.718v-.243h.718zm.106-.632v.25h-.825v-.25h.825zm.188 0h.578c.119 0 .221.018.306.053s.152.088.198.158.069.155.069.257c0 .083-.014.154-.043.214s-.067.108-.118.148a.627.627 0 0 1-.178.094l-.101.053H31.1l-.002-.249h.374c.056 0 .103-.01.14-.03s.065-.048.083-.083a.258.258 0 0 0 .029-.124c0-.05-.009-.093-.028-.129s-.047-.064-.084-.083-.085-.029-.142-.029h-.259v1.301h-.32v-1.551zm.867 1.551-.354-.691.338-.002.358.679v.015h-.342zm1.678-.553h-.395V21.3h.395c.061 0 .111-.01.149-.03s.066-.049.084-.085a.314.314 0 0 0 0-.251c-.018-.04-.046-.072-.084-.096s-.088-.036-.149-.036h-.284v1.301h-.32v-1.551h.604c.121 0 .225.022.312.066a.474.474 0 0 1 .269.443c0 .1-.023.187-.069.26s-.113.13-.2.169a.742.742 0 0 1-.312.06zm1.843.304v.249h-.826v-.249h.826zm-.721-1.302v1.551h-.32v-1.551h.32zm.613.632v.243h-.718v-.243h.718zm.107-.632v.25h-.825v-.25h.825zm.902 0v1.551h-.319v-1.551h.319zm.478 0v.25h-1.266v-.25h1.266zm1.222 1.302v.249h-.825v-.249h.825zm-.721-1.302v1.551h-.32v-1.551h.32zm.614.632v.243h-.718v-.243h.718zm.106-.632v.25h-.824v-.25h.824zm.188 0h.579c.119 0 .22.018.306.053s.152.088.198.158.069.155.069.257c0 .083-.014.154-.043.214s-.067.108-.118.148a.64.64 0 0 1-.178.094l-.101.053h-.503l-.002-.249h.374c.056 0 .103-.01.139-.03s.065-.048.083-.083a.258.258 0 0 0 .029-.124c0-.05-.009-.093-.028-.129s-.047-.064-.084-.083a.31.31 0 0 0-.141-.029h-.259v1.301h-.32v-1.551zm.867 1.551-.354-.691.338-.002.358.679v.015h-.342zm1.338-.406a.197.197 0 0 0-.013-.075c-.008-.023-.023-.043-.045-.062s-.053-.038-.093-.056a1.434 1.434 0 0 0-.154-.058c-.071-.023-.137-.048-.2-.077s-.118-.061-.166-.099c-.048-.038-.085-.083-.113-.133s-.04-.109-.04-.176c0-.065.014-.123.043-.176s.068-.099.119-.136a.565.565 0 0 1 .181-.088.812.812 0 0 1 .53.031.484.484 0 0 1 .198.169.433.433 0 0 1 .071.246h-.317a.23.23 0 0 0-.029-.119c-.018-.035-.047-.062-.085-.082s-.085-.03-.143-.03c-.055 0-.101.009-.139.026s-.064.039-.083.067a.162.162 0 0 0-.028.094c0 .026.006.05.019.071s.033.041.06.06c.026.018.059.036.097.052s.083.032.133.048c.085.026.159.054.223.086s.119.068.162.108.076.085.098.135c.022.05.033.108.033.172a.368.368 0 0 1-.153.316c-.049.037-.109.065-.178.084a.869.869 0 0 1-.458-.001A.671.671 0 0 1 39.6 22c-.06-.041-.109-.094-.145-.158s-.054-.14-.054-.227h.321c0 .048.007.089.022.122s.036.06.063.081c.028.021.06.035.098.045a.494.494 0 0 0 .261-.009.17.17 0 0 0 .107-.159z" />
    </symbol>
    <symbol id="icon-Client-3-2" viewBox="0 0 61 32">
      <path  d="M25.022 23.718a.042.042 0 0 1 .031.012l.08.076a.65.65 0 0 1-.226.143.884.884 0 0 1-.32.051.871.871 0 0 1-.301-.048.622.622 0 0 1-.425-.613.616.616 0 0 1 .211-.478.742.742 0 0 1 .241-.136.953.953 0 0 1 .31-.048.85.85 0 0 1 .288.044c.079.029.152.07.216.121l-.067.081a.061.061 0 0 1-.017.015c-.008.005-.018.007-.027.006s-.02-.004-.029-.009l-.036-.021-.05-.027a.78.78 0 0 0-.067-.027.706.706 0 0 0-.433.006.463.463 0 0 0-.288.262.539.539 0 0 0-.041.213.553.553 0 0 0 .041.216.457.457 0 0 0 .278.259.603.603 0 0 0 .207.034.987.987 0 0 0 .122-.007.494.494 0 0 0 .265-.111.07.07 0 0 1 .038-.014zM27.34 23.338a.654.654 0 0 1-.054.267c-.033.077-.084.148-.151.207s-.148.105-.237.136a.993.993 0 0 1-.61 0 .708.708 0 0 1-.236-.136.607.607 0 0 1-.153-.209.687.687 0 0 1 0-.534.62.62 0 0 1 .389-.341.978.978 0 0 1 .61 0c.089.031.17.077.237.136a.62.62 0 0 1 .206.475zm-.21 0a.544.544 0 0 0-.038-.214.446.446 0 0 0-.277-.261.717.717 0 0 0-.444 0 .483.483 0 0 0-.17.101.424.424 0 0 0-.108.16.62.62 0 0 0 0 .429.449.449 0 0 0 .278.26.732.732 0 0 0 .444 0 .442.442 0 0 0 .277-.26.547.547 0 0 0 .038-.214zM28.922 23.563l.021.048.023-.048c.008-.015.016-.032.026-.047l.513-.797c.01-.014.019-.022.029-.025a.12.12 0 0 1 .042-.004h.152v1.296h-.18v-1.038l-.516.808c-.007.012-.017.022-.03.029s-.028.011-.044.011h-.029c-.016 0-.031-.004-.044-.011s-.024-.017-.03-.03l-.531-.813v1.04h-.174v-1.293h.152a.146.146 0 0 1 .042.004.057.057 0 0 1 .028.025l.524.798a.3.3 0 0 1 .026.046zM30.853 23.499v.485h-.201V22.69h.448a.999.999 0 0 1 .25.028.502.502 0 0 1 .177.081.322.322 0 0 1 .1.127.383.383 0 0 1 .034.166.362.362 0 0 1-.145.296.526.526 0 0 1-.178.086.892.892 0 0 1-.242.03l-.243-.003zm0-.139h.243a.548.548 0 0 0 .156-.02.337.337 0 0 0 .112-.056.247.247 0 0 0 .092-.195c.002-.036-.005-.072-.02-.105s-.04-.064-.07-.088a.435.435 0 0 0-.27-.069h-.243v.533zM33.551 23.986h-.159a.08.08 0 0 1-.044-.012.083.083 0 0 1-.026-.03l-.136-.313H32.5l-.142.313a.076.076 0 0 1-.025.029.079.079 0 0 1-.045.013h-.159l.602-1.296h.209l.61 1.296zm-.994-.481h.566l-.239-.527a.893.893 0 0 1-.045-.122l-.023.068c-.007.021-.015.039-.022.055l-.237.527zM34.418 22.696a.1.1 0 0 1 .03.023l.878.977V22.69h.18v1.296h-.1c-.014 0-.028-.002-.041-.008s-.023-.014-.032-.024l-.877-.976v1.008h-.18V22.69h.106c.012 0 .025.002.036.006zM36.985 23.47v.515h-.201v-.515l-.555-.78h.18a.07.07 0 0 1 .043.011c.011.008.02.018.027.029l.347.503a.68.68 0 0 1 .061.115l.026-.056a.5.5 0 0 1 .034-.059l.343-.507a.133.133 0 0 1 .026-.027.066.066 0 0 1 .043-.013h.182l-.556.784zM28.823 20.515c.087.009.176.017.265.024 1.354-.518 2.5-1.365 3.294-2.436s1.201-2.318 1.17-3.585l-1.493-1.275c.303 1.349.162 2.744-.41 4.029s-1.55 2.408-2.826 3.244z" />
      <path  d="m28.29 20.456.04.007c1.364-.833 2.403-1.997 2.984-3.341s.677-2.805.276-4.196l-2.126-1.816c.86 1.493 1.206 3.164.998 4.818s-.961 3.225-2.172 4.528zM35.5 16.015c-.361 1.393-1.238 2.648-2.501 3.581a8.02 8.02 0 0 1-1.188.729c1.028-.258 1.974-.715 2.763-1.335s1.401-1.386 1.789-2.24l-.862-.736z"/>
      <path d="m35.162 15.81-1.228-1.049c-.023 1.196-.421 2.364-1.152 3.384s-1.768 1.854-3.004 2.416h.006c.275 0 .551-.014.824-.042 1.155-.403 2.175-1.044 2.97-1.865s1.339-1.799 1.584-2.844zM28.468 10.344l-1.465-1.253c-1.309.432-2.435 1.192-3.231 2.18s-1.223 2.158-1.227 3.357c.005 1.325.527 2.611 1.483 3.654s2.293 1.784 3.797 2.105c1.343-1.398 2.13-3.126 2.245-4.932s-.446-3.597-1.604-5.111zM38.545 15.617c-.005-1.572-.739-3.079-2.04-4.19s-3.064-1.738-4.904-1.743a7.911 7.911 0 0 0-2.486.395l8.967 7.661a5.13 5.13 0 0 0 .464-2.123z" />
    </symbol>
    <symbol id="icon-Client-2-3" viewBox="0 0 61 32">
      <path  d="M29.86 7.976h-.05c-.076-.005-.153-.006-.229-.008h-.166a9.211 9.211 0 0 0-.471.011 10.265 10.265 0 0 0-3.824.976l-.157.076v8.051l.368-.125c.323-.111.667-.211 1.023-.303a12.5 12.5 0 0 1 2.944-.391v1.058a9.775 9.775 0 0 0-.387.011h-.03c-.764.042-1.523.158-2.265.348a11.48 11.48 0 0 0-2.698 1.051V8.405a10.794 10.794 0 0 1 2.831-1.151 10.822 10.822 0 0 1 2.668-.344h.155c.186.005.367.013.537.026.448.032.893.102 1.329.212v1.041a8.124 8.124 0 0 0-1.288-.194l-.026-.002a3.048 3.048 0 0 0-.263-.015zm1.832 1.064c.231.018.47.026.712.026a11.398 11.398 0 0 0 2.805-.36c.939-.236 1.846-.59 2.697-1.052v10.142c-.885.516-1.838.903-2.831 1.151-.872.224-1.768.339-2.668.343a8.12 8.12 0 0 1-2.024-.239V8.843a8.518 8.518 0 0 0 1.309.196zm5.161.079-.368.124c-.338.114-.68.215-1.023.306-.999.257-2.026.388-3.057.392-.24 0-.461-.006-.674-.02l-.293-.019v8.283l.252.022c.234.02.475.03.718.03a9.727 9.727 0 0 0 2.407-.312 10.049 10.049 0 0 0 1.881-.676l.157-.076V9.119zM24.632 22.259a.537.537 0 0 0-.409-.165.614.614 0 0 0-.236.044.525.525 0 0 0-.303.306.595.595 0 0 0-.042.228v1.38a.655.655 0 0 0 .054.283.486.486 0 0 0 .328.283.794.794 0 0 0 .206.029.586.586 0 0 0 .571-.581v-.154h-.361v.123a.322.322 0 0 1-.021.123.242.242 0 0 1-.052.078.218.218 0 0 1-.075.04.275.275 0 0 1-.075.013.183.183 0 0 1-.17-.074.325.325 0 0 1-.048-.185v-1.286a.445.445 0 0 1 .044-.206.181.181 0 0 1 .176-.083c.031-.001.062.005.09.019s.052.034.071.059a.3.3 0 0 1 .06.185v.119h.357v-.141a.64.64 0 0 0-.164-.435zM26.774 22.243a.643.643 0 0 0-.41-.152.61.61 0 0 0-.405.152.58.58 0 0 0-.192.46v1.323a.645.645 0 0 0 .052.271.54.54 0 0 0 .14.185c.055.051.12.091.19.117.069.025.142.038.215.039s.146-.013.215-.039a.566.566 0 0 0 .383-.573v-1.323a.642.642 0 0 0-.052-.267.583.583 0 0 0-.136-.193zm-.168 1.784a.233.233 0 0 1-.072.192.266.266 0 0 1-.34 0 .241.241 0 0 1-.072-.192v-1.323a.233.233 0 0 1 .072-.192.266.266 0 0 1 .34 0 .241.241 0 0 1 .072.192v1.323zM29.588 24.618v-2.505h-.347l-.455 1.326h-.006l-.459-1.326h-.343v2.505h.358v-1.524h.006l.35 1.077h.178l.353-1.077h.006v1.524h.358zM31.621 22.289a.498.498 0 0 0-.202-.137.814.814 0 0 0-.259-.039h-.532v2.505h.357v-.978h.184a.654.654 0 0 0 .322-.068.52.52 0 0 0 .196-.191.614.614 0 0 0 .082-.218c.014-.094.02-.19.019-.285a1.436 1.436 0 0 0-.035-.358.526.526 0 0 0-.132-.23zm-.184.763a.325.325 0 0 1-.033.13.206.206 0 0 1-.092.088.362.362 0 0 1-.168.031h-.163v-.852h.184a.343.343 0 0 1 .161.031.208.208 0 0 1 .084.092c.02.044.03.091.031.14v.166c0 .058.004.118 0 .172h-.004zM33.312 22.113h-.293l-.552 2.505h.357l.105-.538h.487l.105.538h.357l-.566-2.505zm-.329 1.626.176-.908h.006l.175.908h-.357zM35.618 23.622h-.006l-.539-1.509h-.343v2.505h.357v-1.506h.007l.545 1.506h.336v-2.505h-.357v1.509zM37.799 22.113l-.287.996h-.007l-.287-.996h-.378l.49 1.446v1.059h.357v-1.059l.49-1.446h-.378zM23.636 25.325h.172v.483h.117v-.483h.171v-.099h-.46v.099zM25.082 25.226l-.225.582h.124l.048-.132h.232l.05.132h.127l-.231-.582h-.124zm-.018.352.079-.215.079.215h-.158zM26.512 25.593h.134v.075a.223.223 0 0 1-.138.049.145.145 0 0 1-.123-.056.241.241 0 0 1-.043-.152c0-.129.056-.194.167-.194a.123.123 0 0 1 .132.093l.115-.022c-.025-.114-.107-.171-.247-.171a.29.29 0 0 0-.203.075.28.28 0 0 0-.083.224.314.314 0 0 0 .075.218c.028.029.063.052.101.067s.079.021.12.018a.353.353 0 0 0 .247-.092v-.229h-.252v.098zM27.972 25.226h-.118v.582h.407v-.099h-.29v-.483zM29.206 25.226h-.118v.582h.118v-.582zM30.413 25.615l-.238-.388h-.114v.582h.109v-.38l.234.38h.117v-.582h-.108v.388zM31.504 25.552h.29v-.099h-.29v-.128h.312v-.099h-.43v.582h.442v-.099h-.324v-.157zM34.15 25.456h-.229v-.229h-.117v.582h.117v-.254h.229v.254h.117v-.582h-.117v.229zM35.247 25.552h.291v-.099h-.291v-.128h.313v-.099h-.43v.582h.441v-.099h-.324v-.157zM36.736 25.552c.101-.016.153-.069.153-.162a.14.14 0 0 0-.057-.13.333.333 0 0 0-.17-.034h-.247v.582h.117v-.243h.023a.153.153 0 0 1 .073.013.12.12 0 0 1 .041.043l.127.185h.14l-.071-.114a.402.402 0 0 0-.129-.14zm-.118-.081h-.086v-.146h.092c.04-.003.08.001.119.014.008.008.015.017.02.027s.007.022.006.033c0 .011-.004.022-.009.032s-.013.019-.022.025a.344.344 0 0 1-.119.014zM37.858 25.552h.289v-.099h-.289v-.128h.313v-.099h-.431v.582h.441v-.099h-.324v-.157z" />
    </symbol>
    <symbol id="icon-Client-2-2" viewBox="0 0 61 32">
      <path  d="M29.86 7.976h-.05c-.076-.005-.153-.006-.229-.008h-.166a9.211 9.211 0 0 0-.471.011 10.265 10.265 0 0 0-3.824.976l-.157.076v8.051l.368-.125c.323-.111.667-.211 1.023-.303a12.5 12.5 0 0 1 2.944-.391v1.058a9.775 9.775 0 0 0-.387.011h-.03c-.764.042-1.523.158-2.265.348a11.48 11.48 0 0 0-2.698 1.051V8.405a10.794 10.794 0 0 1 2.831-1.151 10.822 10.822 0 0 1 2.668-.344h.155c.186.005.367.013.537.026.448.032.893.102 1.329.212v1.041a8.124 8.124 0 0 0-1.288-.194l-.026-.002a3.048 3.048 0 0 0-.263-.015zm1.832 1.064c.231.018.47.026.712.026a11.398 11.398 0 0 0 2.805-.36c.939-.236 1.846-.59 2.697-1.052v10.142c-.885.516-1.838.903-2.831 1.151-.872.224-1.768.339-2.668.343a8.12 8.12 0 0 1-2.024-.239V8.843a8.518 8.518 0 0 0 1.309.196zm5.161.079-.368.124c-.338.114-.68.215-1.023.306-.999.257-2.026.388-3.057.392-.24 0-.461-.006-.674-.02l-.293-.019v8.283l.252.022c.234.02.475.03.718.03a9.727 9.727 0 0 0 2.407-.312 10.049 10.049 0 0 0 1.881-.676l.157-.076V9.119zM24.632 22.259a.537.537 0 0 0-.409-.165.614.614 0 0 0-.236.044.525.525 0 0 0-.303.306.595.595 0 0 0-.042.228v1.38a.655.655 0 0 0 .054.283.486.486 0 0 0 .328.283.794.794 0 0 0 .206.029.586.586 0 0 0 .571-.581v-.154h-.361v.123a.322.322 0 0 1-.021.123.242.242 0 0 1-.052.078.218.218 0 0 1-.075.04.275.275 0 0 1-.075.013.183.183 0 0 1-.17-.074.325.325 0 0 1-.048-.185v-1.286a.445.445 0 0 1 .044-.206.181.181 0 0 1 .176-.083c.031-.001.062.005.09.019s.052.034.071.059a.3.3 0 0 1 .06.185v.119h.357v-.141a.64.64 0 0 0-.164-.435zM26.774 22.243a.643.643 0 0 0-.41-.152.61.61 0 0 0-.405.152.58.58 0 0 0-.192.46v1.323a.645.645 0 0 0 .052.271.54.54 0 0 0 .14.185c.055.051.12.091.19.117.069.025.142.038.215.039s.146-.013.215-.039a.566.566 0 0 0 .383-.573v-1.323a.642.642 0 0 0-.052-.267.583.583 0 0 0-.136-.193zm-.168 1.784a.233.233 0 0 1-.072.192.266.266 0 0 1-.34 0 .241.241 0 0 1-.072-.192v-1.323a.233.233 0 0 1 .072-.192.266.266 0 0 1 .34 0 .241.241 0 0 1 .072.192v1.323zM29.588 24.618v-2.505h-.347l-.455 1.326h-.006l-.459-1.326h-.343v2.505h.358v-1.524h.006l.35 1.077h.178l.353-1.077h.006v1.524h.358zM31.621 22.289a.498.498 0 0 0-.202-.137.814.814 0 0 0-.259-.039h-.532v2.505h.357v-.978h.184a.654.654 0 0 0 .322-.068.52.52 0 0 0 .196-.191.614.614 0 0 0 .082-.218c.014-.094.02-.19.019-.285a1.436 1.436 0 0 0-.035-.358.526.526 0 0 0-.132-.23zm-.184.763a.325.325 0 0 1-.033.13.206.206 0 0 1-.092.088.362.362 0 0 1-.168.031h-.163v-.852h.184a.343.343 0 0 1 .161.031.208.208 0 0 1 .084.092c.02.044.03.091.031.14v.166c0 .058.004.118 0 .172h-.004zM33.312 22.113h-.293l-.552 2.505h.357l.105-.538h.487l.105.538h.357l-.566-2.505zm-.329 1.626.176-.908h.006l.175.908h-.357zM35.618 23.622h-.006l-.539-1.509h-.343v2.505h.357v-1.506h.007l.545 1.506h.336v-2.505h-.357v1.509zM37.799 22.113l-.287.996h-.007l-.287-.996h-.378l.49 1.446v1.059h.357v-1.059l.49-1.446h-.378zM23.636 25.325h.172v.483h.117v-.483h.171v-.099h-.46v.099zM25.082 25.226l-.225.582h.124l.048-.132h.232l.05.132h.127l-.231-.582h-.124zm-.018.352.079-.215.079.215h-.158zM26.512 25.593h.134v.075a.223.223 0 0 1-.138.049.145.145 0 0 1-.123-.056.241.241 0 0 1-.043-.152c0-.129.056-.194.167-.194a.123.123 0 0 1 .132.093l.115-.022c-.025-.114-.107-.171-.247-.171a.29.29 0 0 0-.203.075.28.28 0 0 0-.083.224.314.314 0 0 0 .075.218c.028.029.063.052.101.067s.079.021.12.018a.353.353 0 0 0 .247-.092v-.229h-.252v.098zM27.972 25.226h-.118v.582h.407v-.099h-.29v-.483zM29.206 25.226h-.118v.582h.118v-.582zM30.413 25.615l-.238-.388h-.114v.582h.109v-.38l.234.38h.117v-.582h-.108v.388zM31.504 25.552h.29v-.099h-.29v-.128h.312v-.099h-.43v.582h.442v-.099h-.324v-.157zM34.15 25.456h-.229v-.229h-.117v.582h.117v-.254h.229v.254h.117v-.582h-.117v.229zM35.247 25.552h.291v-.099h-.291v-.128h.313v-.099h-.43v.582h.441v-.099h-.324v-.157zM36.736 25.552c.101-.016.153-.069.153-.162a.14.14 0 0 0-.057-.13.333.333 0 0 0-.17-.034h-.247v.582h.117v-.243h.023a.153.153 0 0 1 .073.013.12.12 0 0 1 .041.043l.127.185h.14l-.071-.114a.402.402 0 0 0-.129-.14zm-.118-.081h-.086v-.146h.092c.04-.003.08.001.119.014.008.008.015.017.02.027s.007.022.006.033c0 .011-.004.022-.009.032s-.013.019-.022.025a.344.344 0 0 1-.119.014zM37.858 25.552h.289v-.099h-.289v-.128h.313v-.099h-.431v.582h.441v-.099h-.324v-.157z" />
    </symbol>
    <symbol id="icon-Client-1-3" viewBox="0 0 61 32">
      <path  d="m25.455 8.364 2.548 2.428-4.73-.003v11.779h12.364v-4.504l2.545 2.425V8.364H25.455zm10.07 9.415L28.3 10.895h7.225v6.884zm-2.244 3.066h-8.052v-7.922h.569v7.386h7.483v.536zm-6.446 3.905-.3-.617h-.248l.435.817v.476h.225v-.476l.435-.817h-.247l-.3.617zm1.106-.618h.053l.488 1.293h-.234l-.105-.303h-.5l-.104.303h-.233l.486-1.293h.149zm-.237.814h.378l-.189-.548-.189.548zm1.562-.214-.028-.036c-.033-.044-.059-.086-.077-.127s-.028-.084-.028-.128c0-.067.014-.125.042-.174s.067-.086.118-.112a.374.374 0 0 1 .178-.04c.066 0 .122.013.17.04s.085.061.11.104a.27.27 0 0 1 .039.142c0 .041-.007.078-.022.112s-.035.064-.061.092a.594.594 0 0 1-.091.079l-.09.065.256.302.023-.052a.52.52 0 0 0 .033-.189h.185c0 .063-.006.122-.019.178a.583.583 0 0 1-.095.213l.189.224h-.248l-.075-.088a.49.49 0 0 1-.133.072.606.606 0 0 1-.201.034c-.086 0-.16-.016-.223-.047s-.111-.075-.146-.13a.352.352 0 0 1-.018-.328.427.427 0 0 1 .09-.112c.035-.032.075-.063.12-.095zm.106.129-.027.019c-.031.025-.055.05-.07.074s-.025.044-.029.064a.22.22 0 0 0 .017.155.19.19 0 0 0 .072.074.234.234 0 0 0 .116.027.329.329 0 0 0 .209-.074l-.288-.338zm.051-.236.079-.053c.037-.025.064-.049.08-.073s.024-.054.024-.091a.129.129 0 0 0-.136-.124c-.03 0-.056.007-.076.021s-.036.032-.047.055a.183.183 0 0 0-.015.075c0 .027.007.054.02.083a.442.442 0 0 0 .071.107zm2.262.379h-.222c-.006.056-.02.104-.041.143s-.05.068-.09.088a.337.337 0 0 1-.154.03c-.052 0-.097-.01-.134-.031s-.068-.05-.092-.088c-.024-.038-.041-.083-.053-.136s-.017-.112-.017-.178v-.109c0-.069.006-.13.019-.183s.032-.099.058-.136c.025-.037.057-.064.095-.083s.082-.028.133-.028c.062 0 .112.011.151.032s.067.051.087.091c.02.04.033.087.039.143h.222c-.009-.086-.033-.163-.073-.23s-.094-.119-.165-.157a.547.547 0 0 0-.261-.057c-.081 0-.154.014-.219.043s-.12.07-.166.123c-.046.053-.082.117-.107.193s-.036.159-.036.252v.107c0 .093.012.177.036.252s.059.139.105.193c.046.053.1.093.164.122s.136.043.216.043c.104 0 .193-.019.265-.057s.129-.09.17-.155a.514.514 0 0 0 .071-.226zm1.233-.19v-.071c0-.098-.013-.185-.039-.262s-.062-.144-.109-.198c-.047-.055-.104-.097-.17-.125a.555.555 0 0 0-.436 0 .475.475 0 0 0-.17.125c-.047.054-.084.12-.11.198s-.039.164-.039.262v.071c0 .098.013.185.039.263s.064.144.112.198a.488.488 0 0 0 .388.168.484.484 0 0 0 .387-.168c.047-.054.084-.12.109-.198s.038-.165.038-.263zm-.223-.073v.073c0 .072-.007.136-.021.192s-.034.103-.06.141a.26.26 0 0 1-.23.114c-.049 0-.093-.009-.131-.028s-.072-.048-.099-.086c-.027-.038-.048-.086-.062-.141s-.021-.12-.021-.192v-.073c0-.072.007-.136.021-.191s.035-.102.061-.139c.027-.038.06-.066.099-.085s.082-.029.131-.029.093.01.132.029c.039.019.072.047.099.085s.048.084.061.139a.78.78 0 0 1 .021.191z" />
    </symbol>
    <symbol id="icon-linkedin-1-1" viewBox="0 0 32 32">
      <path  d="M31.992 32v-.001H32V20.263c0-5.741-1.236-10.164-7.948-10.164-3.227 0-5.392 1.771-6.276 3.449h-.093v-2.913h-6.364v21.364h6.627V21.42c0-2.785.528-5.479 3.977-5.479 3.399 0 3.449 3.179 3.449 5.657v10.401h6.62zM.528 10.636h6.635V32H.528V10.636zM3.843 0C1.722 0 0 1.721 0 3.843s1.721 3.879 3.843 3.879c2.121 0 3.843-1.757 3.843-3.879A3.846 3.846 0 0 0 3.843 0z" />
    </symbol>
    <symbol id="icon-facebook-1-1" viewBox="0 0 32 32">
      <path  d="M21.329 5.313h2.921V.225C23.746.156 22.013 0 19.994 0c-4.212 0-7.097 2.649-7.097 7.519V12H8.249v5.688h4.648V32h5.699V17.689h4.46l.708-5.688h-5.169V8.082c.001-1.644.444-2.769 2.735-2.769z" />
    </symbol>
    <symbol id="icon-twitter-1-1" viewBox="0 0 32 32">
      <path  d="M32 6.078c-1.19.522-2.458.868-3.78 1.036a6.523 6.523 0 0 0 2.886-3.626 13.11 13.11 0 0 1-4.16 1.588A6.574 6.574 0 0 0 22.154 3c-3.632 0-6.556 2.948-6.556 6.562 0 .52.044 1.02.152 1.496-5.454-.266-10.28-2.88-13.522-6.862a6.605 6.605 0 0 0-.898 3.316 6.57 6.57 0 0 0 2.914 5.452 6.479 6.479 0 0 1-2.964-.808v.072c0 3.188 2.274 5.836 5.256 6.446a6.548 6.548 0 0 1-1.72.216 5.8 5.8 0 0 1-1.242-.112c.85 2.598 3.262 4.508 6.13 4.57a13.182 13.182 0 0 1-8.134 2.798c-.538 0-1.054-.024-1.57-.09A18.469 18.469 0 0 0 10.064 29c12.072 0 18.672-10 18.672-18.668 0-.29-.01-.57-.024-.848A13.087 13.087 0 0 0 32 6.078z" />
    </symbol>
    <symbol id="icon-instagram-2-1" viewBox="0 0 32 32">
      <path  d="M31.969 9.408c-.075-1.7-.35-2.869-.744-3.882a7.803 7.803 0 0 0-1.85-2.838A7.867 7.867 0 0 0 26.543.844C25.524.45 24.361.175 22.661.1 20.948.019 20.404 0 16.06 0s-4.888.019-6.595.094c-1.7.075-2.869.35-3.882.744a7.803 7.803 0 0 0-2.838 1.85A7.867 7.867 0 0 0 .901 5.52C.507 6.539.232 7.702.157 9.402c-.081 1.713-.1 2.257-.1 6.601s.019 4.888.094 6.595c.075 1.7.35 2.869.744 3.882a7.895 7.895 0 0 0 1.85 2.838 7.867 7.867 0 0 0 2.832 1.844c1.019.394 2.182.669 3.882.744 1.706.075 2.25.094 6.595.094s4.888-.018 6.595-.094c1.7-.075 2.869-.35 3.882-.744a8.181 8.181 0 0 0 4.682-4.682c.394-1.019.669-2.182.744-3.882.075-1.707.094-2.251.094-6.595s-.006-4.888-.081-6.595zm-2.882 13.065c-.069 1.563-.331 2.407-.55 2.969a5.307 5.307 0 0 1-3.038 3.038c-.563.219-1.413.481-2.969.55-1.688.075-2.194.094-6.464.094s-4.782-.018-6.464-.094c-1.563-.069-2.407-.331-2.969-.55a4.926 4.926 0 0 1-1.838-1.194 4.974 4.974 0 0 1-1.194-1.838c-.219-.563-.481-1.413-.55-2.969-.075-1.688-.094-2.194-.094-6.464s.019-4.782.094-6.464c.069-1.563.331-2.407.55-2.969a4.868 4.868 0 0 1 1.2-1.838A4.974 4.974 0 0 1 6.639 3.55c.563-.219 1.413-.481 2.969-.55 1.688-.075 2.194-.094 6.464-.094 4.276 0 4.782.019 6.464.094 1.563.069 2.407.331 2.969.55a4.914 4.914 0 0 1 1.838 1.194 4.974 4.974 0 0 1 1.194 1.838c.219.563.481 1.413.55 2.969.075 1.688.094 2.194.094 6.464s-.019 4.77-.094 6.457z" />
      <path  d="M16.059 7.782c-4.538 0-8.22 3.682-8.22 8.22s3.682 8.22 8.22 8.22 8.22-3.682 8.22-8.22-3.682-8.22-8.22-8.22zm0 13.553a5.333 5.333 0 0 1 0-10.664 5.333 5.333 0 0 1 0 10.664zM26.524 7.457a1.919 1.919 0 1 1-3.838 0 1.919 1.919 0 0 1 3.838 0z" />
    </symbol>
          
             <svg aria-hidden="true" style="position: absolute; width: 0; height: 0; overflow: hidden;" version="1.1" xmlns="http://www.w3.org/2000/svg" xmlns:xlink="http://www.w3.org/1999/xlink">
<defs>
<symbol id="icon-antenna-1-2" viewBox="0 0 32 32">
<path fill="#2e2f42" style="fill: var(--color1, #2e2f42)" d="M30.773 22.098l-8.443-8.505 0.937-4.615c0.242 0.094 0.499 0.144 0.758 0.146h0.006c1.192 0.014 2.17-0.941 2.184-2.133s-0.941-2.17-2.133-2.184c-1.192-0.014-2.17 0.941-2.184 2.133-0.003 0.255 0.039 0.509 0.125 0.749l-4.96 0.605-8.091-8.133c-0.099-0.101-0.235-0.159-0.377-0.16-0.14 0.001-0.274 0.056-0.373 0.155l-1.513 1.504c-0.208 0.208-0.208 0.546 0 0.754l0.814 0.826c-3.153 5.798-2.129 12.978 2.519 17.663 0.043 0.041 0.092 0.074 0.146 0.098-0.034 0.18-0.051 0.364-0.052 0.547v6.187h-6.4c-1.472 0.002-2.665 1.195-2.667 2.667v1.067c0 0.295 0.239 0.533 0.533 0.533h24.533c0.295 0 0.533-0.239 0.533-0.533v-1.067c-0.002-1.472-1.195-2.665-2.667-2.667h-6.4v-2.742c1.003 0.21 2.024 0.317 3.049 0.32 2.458-0.003 4.877-0.615 7.040-1.783l0.818 0.823c0.099 0.101 0.235 0.159 0.377 0.16 0.14-0.001 0.274-0.056 0.373-0.155l1.513-1.504c0.208-0.208 0.208-0.546 0-0.754zM23.28 6.233c0.418-0.415 1.093-0.414 1.509 0.004s0.414 1.093-0.004 1.508c-0.2 0.199-0.47 0.31-0.752 0.31h-0.003c-0.589-0.003-1.064-0.483-1.061-1.072 0.002-0.282 0.115-0.552 0.314-0.751h-0.002zM22.024 9.738l-0.598 2.946-1.175-1.182 1.774-1.763zM21.419 8.836l-1.92 1.909-1.485-1.493 3.405-0.415zM24.004 28.8c0.884 0 1.6 0.716 1.6 1.6v0.533h-23.467v-0.533c0-0.884 0.716-1.6 1.6-1.6h20.267zM16.537 26.667v1.067h-5.333v-1.067h5.333zM11.204 25.6v-4.053c0-1.294 1.196-2.347 2.667-2.347s2.667 1.053 2.667 2.347v4.053h-5.333zM17.604 23.904v-2.357c0-1.882-1.675-3.413-3.733-3.413-1.331-0.020-2.576 0.657-3.281 1.786-4.058-4.274-4.971-10.645-2.279-15.887l18.602 18.708c-2.872 1.461-6.165 1.873-9.309 1.163zM28.893 23.22l-21.057-21.181 0.755-0.752 7.935 7.98c0.004 0 0.006 0.007 0.010 0.010l13.115 13.191-0.757 0.752z"></path>
<path fill="#4d5ae5" style="fill: var(--color2, #4d5ae5)" d="M13.876 20.267h-0.005c-0.884-0.001-1.601 0.714-1.602 1.598s0.714 1.601 1.598 1.602h0.005c0.884 0.001 1.601-0.714 1.602-1.598s-0.714-1.601-1.598-1.602zM14.249 22.245c-0.1 0.1-0.236 0.156-0.378 0.155-0.295-0.002-0.532-0.242-0.531-0.536 0.001-0.141 0.057-0.276 0.157-0.375s0.233-0.154 0.373-0.155c0.295 0.002 0.532 0.242 0.531 0.536-0.001 0.141-0.057 0.276-0.157 0.375h0.005z"></path>
</symbol>
<symbol id="icon-astronaut-1-1" viewBox="0 0 32 32">
<path fill="#4d5ae5" style="fill: var(--color2, #4d5ae5)" d="M31.974 4.524c-0.063-0.193-0.229-0.333-0.43-0.363l-1.91-0.278-0.855-1.731c-0.179-0.365-0.777-0.365-0.956 0l-0.855 1.731-1.91 0.278c-0.201 0.029-0.367 0.17-0.431 0.363-0.062 0.193-0.011 0.405 0.135 0.547l1.383 1.348-0.326 1.903c-0.034 0.2 0.048 0.402 0.212 0.522 0.166 0.121 0.382 0.135 0.562 0.040l1.709-0.899 1.709 0.899c0.078 0.041 0.164 0.061 0.249 0.061 0.11 0 0.221-0.034 0.314-0.102 0.164-0.119 0.246-0.322 0.212-0.522l-0.326-1.903 1.383-1.348c0.145-0.142 0.197-0.354 0.135-0.547zM29.511 5.851c-0.125 0.122-0.183 0.299-0.153 0.472l0.191 1.114-1-0.526c-0.078-0.041-0.163-0.061-0.249-0.061s-0.17 0.020-0.249 0.061l-1.001 0.526 0.191-1.114c0.030-0.173-0.028-0.349-0.153-0.472l-0.81-0.789 1.119-0.163c0.174-0.025 0.324-0.134 0.402-0.292l0.5-1.013 0.5 1.013c0.078 0.157 0.228 0.267 0.402 0.292l1.119 0.163-0.809 0.789z"></path>
<path fill="#4d5ae5" style="fill: var(--color2, #4d5ae5)" d="M26.134 20.522h-1.067v1.067h1.067v-1.067z"></path>
<path fill="#4d5ae5" style="fill: var(--color2, #4d5ae5)" d="M26.134 22.656h-1.067v1.067h1.067v-1.067z"></path>
<path fill="#4d5ae5" style="fill: var(--color2, #4d5ae5)" d="M27.2 21.589h-1.067v1.067h1.067v-1.067z"></path>
<path fill="#4d5ae5" style="fill: var(--color2, #4d5ae5)" d="M25.067 21.589h-1.067v1.067h1.067v-1.067z"></path>
<path fill="#4d5ae5" style="fill: var(--color2, #4d5ae5)" d="M22.4 26.389h-1.067v1.067h1.067v-1.067z"></path>
<path fill="#4d5ae5" style="fill: var(--color2, #4d5ae5)" d="M22.4 28.522h-1.067v1.067h1.067v-1.067z"></path>
<path fill="#4d5ae5" style="fill: var(--color2, #4d5ae5)" d="M23.467 27.456h-1.067v1.067h1.067v-1.067z"></path>
<path fill="#4d5ae5" style="fill: var(--color2, #4d5ae5)" d="M21.333 27.456h-1.067v1.067h1.067v-1.067z"></path>
<path fill="#4d5ae5" style="fill: var(--color2, #4d5ae5)" d="M16 24.256h-1.067v1.067h1.067v-1.067z"></path>
<path fill="#4d5ae5" style="fill: var(--color2, #4d5ae5)" d="M16 26.389h-1.067v1.067h1.067v-1.067z"></path>
<path fill="#4d5ae5" style="fill: var(--color2, #4d5ae5)" d="M17.067 25.322h-1.067v1.067h1.067v-1.067z"></path>
<path fill="#4d5ae5" style="fill: var(--color2, #4d5ae5)" d="M14.933 25.322h-1.067v1.067h1.067v-1.067z"></path>
<path fill="#4d5ae5" style="fill: var(--color2, #4d5ae5)" d="M5.867 6.122h-1.067v1.067h1.067v-1.067z"></path>
<path fill="#4d5ae5" style="fill: var(--color2, #4d5ae5)" d="M5.867 8.255h-1.067v1.067h1.067v-1.067z"></path>
<path fill="#4d5ae5" style="fill: var(--color2, #4d5ae5)" d="M6.933 7.189h-1.067v1.067h1.067v-1.067z"></path>
<path fill="#4d5ae5" style="fill: var(--color2, #4d5ae5)" d="M4.8 7.189h-1.067v1.067h1.067v-1.067z"></path>
<path fill="#2e2f42" style="fill: var(--color1, #2e2f42)" d="M24.715 14.159c-0.287-0.388-0.709-0.637-1.188-0.705-0.481-0.068-0.956 0.058-1.34 0.352l-1.252 0.96-1.898 1.417-1.358-0.541c2.421-1.086 4.114-3.508 4.114-6.32 0-3.823-3.123-6.933-6.961-6.933s-6.961 3.11-6.961 6.933c0 1.386 0.414 2.674 1.12 3.758l-2.764-0.024c-0.002 0-0.003 0-0.005 0-0.009 0-0.015 0.004-0.023 0.005-0.053 0.002-0.105 0.013-0.155 0.031-0.013 0.005-0.026 0.008-0.038 0.013-0.006 0.003-0.013 0.003-0.019 0.006l-3.233 1.596c-0.001 0-0.001 0-0.001 0.001l-1.893 0.911c-0.021 0.009-0.042 0.021-0.063 0.035-0.755 0.502-1.012 1.489-0.598 2.295 0.22 0.429 0.595 0.745 1.056 0.889 0.178 0.055 0.359 0.083 0.539 0.083 0.29 0 0.577-0.071 0.839-0.211l1.388-0.738 2.264-1.169 1.357-0.008-5.442 5.416c-0.001 0.001-0.001 0.001-0.002 0.001l-1.339 1.333c-0.316 0.315-0.49 0.732-0.49 1.178s0.174 0.863 0.49 1.179c0.325 0.323 0.752 0.485 1.179 0.485s0.854-0.162 1.18-0.485l1.314-1.309 1.741-1.3 0.901 0.897-1.762 1.754c-0 0.001-0.001 0.001-0.002 0.001l-1.339 1.333c-0.316 0.315-0.49 0.732-0.49 1.178s0.174 0.863 0.49 1.179c0.325 0.323 0.753 0.485 1.18 0.485s0.855-0.162 1.18-0.485l3.482-3.467c0.001-0.001 0.001-0.001 0.001-0.002l1.010-1-0.004-0.004c0.006-0.006 0.015-0.009 0.022-0.015l5.166-5.658 3.471 0.494c0.025 0.004 0.050 0.005 0.075 0.005 0.065 0 0.127-0.015 0.187-0.038 0.018-0.006 0.033-0.015 0.050-0.023 0.019-0.010 0.039-0.015 0.058-0.027l3.213-2.133c0.012-0.008 0.018-0.021 0.029-0.029 0.013-0.010 0.029-0.014 0.041-0.026l1.271-1.191c0.662-0.62 0.753-1.635 0.212-2.362zM2.13 17.77c-0.173 0.093-0.37 0.111-0.558 0.052-0.187-0.058-0.338-0.186-0.427-0.358-0.161-0.314-0.068-0.695 0.214-0.902l1.314-0.632 0.449 1.313-0.992 0.527zM5.628 15.942l-1.548 0.8-0.439-1.283 2.027-1.001-0.040 1.484zM20.727 9.322c0 0.918-0.219 1.785-0.599 2.559l-4.181-1.899c-0.044-0.573-0.341-1.075-0.788-1.388l1.464-4.86c2.378 0.756 4.105 2.974 4.105 5.588zM8.938 9.322c0-3.235 2.644-5.867 5.894-5.867 0.253 0 0.5 0.021 0.745 0.052l-1.432 4.754c-0.019-0.001-0.037-0.006-0.057-0.006-1.033 0-1.873 0.837-1.873 1.867s0.84 1.867 1.873 1.867c0.694 0 1.294-0.383 1.618-0.945l3.862 1.755c-1.075 1.446-2.795 2.39-4.737 2.39-3.25 0-5.894-2.632-5.894-5.867zM14.894 10.122c0 0.441-0.362 0.8-0.806 0.8s-0.806-0.359-0.806-0.8c0-0.441 0.362-0.8 0.806-0.8s0.806 0.359 0.806 0.8zM2.465 25.146c-0.236 0.234-0.619 0.234-0.854 0.001-0.114-0.114-0.176-0.263-0.176-0.423s0.062-0.309 0.176-0.421l0.962-0.958 0.851 0.848-0.959 0.955zM5.679 28.88c-0.236 0.234-0.619 0.235-0.855 0.001-0.114-0.114-0.176-0.263-0.176-0.423s0.062-0.309 0.176-0.421l0.963-0.959 0.852 0.848-0.96 0.955zM9.16 25.411c-0.001 0-0.001 0-0.002 0.001l-1.765 1.76-0.852-0.848 1.763-1.755c0 0 0 0 0-0s0.001-0.001 0.002-0.001c0.040-0.040 0.065-0.088 0.090-0.135 0.007-0.014 0.020-0.026 0.026-0.040 0.017-0.041 0.019-0.085 0.026-0.129 0.003-0.025 0.014-0.047 0.014-0.073 0-0.036-0.013-0.070-0.020-0.106-0.006-0.032-0.006-0.065-0.019-0.095-0.020-0.050-0.055-0.094-0.091-0.138-0.010-0.012-0.014-0.027-0.025-0.038 0 0 0 0-0.001 0s-0.001-0.002-0.001-0.002l-1.607-1.6c-0.017-0.017-0.039-0.024-0.058-0.038-0.028-0.022-0.055-0.042-0.087-0.058-0.030-0.015-0.061-0.024-0.093-0.033-0.034-0.010-0.067-0.017-0.103-0.020-0.033-0.002-0.063 0.001-0.095 0.005-0.036 0.004-0.069 0.009-0.104 0.020-0.034 0.011-0.063 0.027-0.094 0.045-0.020 0.011-0.042 0.015-0.061 0.029l-1.773 1.324-0.901-0.897 2.399-2.386 4.361 4.289-0.928 0.919zM15.979 18.394c-0.015-0.002-0.030 0.004-0.045 0.003-0.039-0.002-0.076 0.001-0.115 0.007-0.030 0.005-0.059 0.011-0.088 0.021-0.034 0.012-0.065 0.028-0.097 0.047-0.030 0.018-0.057 0.037-0.083 0.061-0.013 0.011-0.028 0.017-0.040 0.029l-4.698 5.146-4.328-4.257 2.833-2.818c0.209-0.208 0.21-0.546 0.002-0.755-0.105-0.105-0.243-0.157-0.381-0.156v-0.001l-2.219 0.013 0.028-1.607 3.104 0.027c1.265 1.294 3.029 2.101 4.981 2.101 0.437 0 0.864-0.045 1.279-0.123 0.040 0.032 0.079 0.065 0.13 0.085l2.41 0.96 0.152 0.758 0.178 0.885-3.003-0.427zM20.020 18.572l-0.313-1.558 1.446-1.080 0.947 1.257-2.080 1.381zM23.774 15.741l-0.838 0.785-0.931-1.236 0.831-0.637c0.155-0.119 0.351-0.168 0.543-0.143 0.193 0.027 0.364 0.128 0.48 0.284 0.217 0.292 0.18 0.699-0.085 0.947z"></path>
<path fill="#2e2f42" style="fill: var(--color1, #2e2f42)" d="M13.602 18.544l-2.143-2.133c-0.207-0.207-0.545-0.207-0.753 0l-2.142 2.133c-0.1 0.101-0.157 0.236-0.157 0.378s0.056 0.278 0.157 0.378l2.142 2.133c0.104 0.103 0.241 0.155 0.377 0.155s0.273-0.052 0.376-0.155l2.143-2.133c0.1-0.1 0.157-0.236 0.157-0.378s-0.057-0.278-0.157-0.378zM11.083 20.303l-1.387-1.381 1.387-1.381 1.387 1.381-1.387 1.381z"></path>
<path fill="#2e2f42" style="fill: var(--color1, #2e2f42)" d="M17.164 5.071l-0.258 1.036c0.071 0.018 1.738 0.452 1.738 2.149h1.067c-0-2.017-1.666-2.965-2.547-3.185z"></path>
<path fill="#2e2f42" style="fill: var(--color1, #2e2f42)" d="M19.711 9.322h-1.067v1.067h1.067v-1.067z"></path>
</symbol>
<symbol id="icon-diagram-1" viewBox="0 0 32 32">
<path fill="#4d5ae5" style="fill: var(--color2, #4d5ae5)" d="M14.926 14.965h1.066v4.798h-1.066v-4.797z"></path>
<path fill="#4d5ae5" style="fill: var(--color2, #4d5ae5)" d="M19.19 17.097h1.066v2.665h-1.066v-2.665z"></path>
<path fill="#4d5ae5" style="fill: var(--color2, #4d5ae5)" d="M10.661 18.696h1.066v1.066h-1.066v-1.066z"></path>
<path fill="#4d5ae5" style="fill: var(--color2, #4d5ae5)" d="M7.463 18.163h1.066v1.599h-1.066v-1.599z"></path>
<path fill="#2e2f42" style="fill: var(--color1, #2e2f42)" d="M1.599 28.291h25.587c0.883 0 1.599-0.716 1.599-1.599v-2.132c0-0.883-0.716-1.599-1.599-1.599h-0.533v-13.293l3.028-2.868c0.703 0.346 1.553 0.136 2.013-0.499s0.396-1.508-0.152-2.068-1.42-0.644-2.065-0.198c-0.644 0.446-0.873 1.292-0.542 2.002l-2.281 2.163v-1.23c0-0.883-0.716-1.599-1.599-1.599h-21.322c-0.883 0-1.599 0.716-1.599 1.599v15.992h-0.533c-0.883 0-1.599 0.716-1.599 1.599v2.132c0 0.883 0.716 1.599 1.599 1.599zM30.384 4.837c0.294 0 0.533 0.239 0.533 0.533s-0.239 0.533-0.533 0.533c-0.294 0-0.533-0.239-0.533-0.533s0.239-0.533 0.533-0.533zM3.198 6.969c0-0.294 0.239-0.533 0.533-0.533h21.322c0.294 0 0.533 0.239 0.533 0.533v2.239l-1.066 1.013v-2.186c0-0.294-0.239-0.533-0.533-0.533h-19.19c-0.294 0-0.533 0.239-0.533 0.533v13.326c0 0.294 0.239 0.533 0.533 0.533h19.19c0.294 0 0.533-0.239 0.533-0.533v-9.674l1.066-1.010v12.284h-22.388v-15.992zM7.996 13.899c-0.721-0.002-1.354 0.478-1.546 1.174s0.105 1.433 0.725 1.801c0.62 0.368 1.41 0.276 1.928-0.226l1.853 0.93c0.215 0.108 0.476 0.057 0.636-0.123l3.939-4.431 3.872 2.901c0.208 0.156 0.498 0.139 0.686-0.039l3.365-3.188v8.131h-18.124v-12.26h18.124v2.66l-3.771 3.572-3.904-2.927c-0.222-0.166-0.534-0.135-0.718 0.072l-3.993 4.493-1.493-0.746c0.011-0.064 0.018-0.129 0.020-0.193 0-0.883-0.716-1.599-1.599-1.599zM8.529 15.498c0 0.294-0.239 0.533-0.533 0.533s-0.533-0.239-0.533-0.533c0-0.294 0.239-0.533 0.533-0.533s0.533 0.239 0.533 0.533zM11.727 24.027h5.331v0.533c0 0.294-0.239 0.533-0.533 0.533h-4.264c-0.294 0-0.533-0.239-0.533-0.533v-0.533zM1.066 24.56c0-0.294 0.239-0.533 0.533-0.533h9.062v0.533c0 0.883 0.716 1.599 1.599 1.599h4.264c0.883 0 1.599-0.716 1.599-1.599v-0.533h9.062c0.294 0 0.533 0.239 0.533 0.533v2.132c0 0.294-0.239 0.533-0.533 0.533h-25.587c-0.294 0-0.533-0.239-0.533-0.533v-2.132z"></path>
</symbol>
<symbol id="icon-clock-1-1" viewBox="0 0 32 32">
<path fill="#2e2f42" style="fill: var(--color1, #2e2f42)" d="M31.297 15.301c-0.002-8.452-6.855-15.303-15.308-15.301s-15.303 6.855-15.301 15.308c0.001 6.658 4.307 12.551 10.649 14.576 0.061 0.019 0.124 0.029 0.187 0.029 0.121-0 0.239-0.032 0.342-0.094 0.135-0.080 0.236-0.207 0.283-0.356l3.865-12.25c1.057-0.005 1.909-0.866 1.903-1.923s-0.866-1.909-1.923-1.903c-0.284 0.001-0.565 0.067-0.82 0.191l-5.106-5.107c-0.253-0.245-0.657-0.238-0.902 0.016-0.239 0.247-0.239 0.639 0 0.886l5.103 5.109c-0.392 0.799-0.168 1.764 0.536 2.309l-3.683 11.673c-7.278-2.681-11.004-10.754-8.323-18.032s10.754-11.004 18.032-8.323c7.278 2.681 11.004 10.754 8.323 18.032-1.31 3.556-4.001 6.431-7.462 7.973l-0.398-1.874c-0.073-0.345-0.411-0.565-0.756-0.492-0.109 0.023-0.209 0.074-0.293 0.148l-3.837 3.426c-0.263 0.234-0.287 0.637-0.052 0.9 0.076 0.085 0.174 0.149 0.283 0.184l4.899 1.564c0.335 0.108 0.694-0.077 0.802-0.412 0.034-0.106 0.040-0.219 0.017-0.328l-0.391-1.839c5.664-2.388 9.342-7.942 9.329-14.089zM15.992 14.664c0.352 0 0.638 0.286 0.638 0.638s-0.286 0.638-0.638 0.638c-0.352 0-0.638-0.285-0.638-0.638s0.285-0.638 0.638-0.638zM18.093 29.528l2.184-1.948 0.603 2.84-2.787-0.892z"></path>
<path fill="#4d5ae5" style="fill: var(--color2, #4d5ae5)" d="M15.354 3.185v1.275c0 0.352 0.285 0.638 0.638 0.638s0.638-0.285 0.638-0.638v-1.275c0-0.352-0.286-0.638-0.638-0.638s-0.638 0.286-0.638 0.638z"></path>
<path fill="#4d5ae5" style="fill: var(--color2, #4d5ae5)" d="M3.876 14.664c-0.352 0-0.638 0.286-0.638 0.638s0.285 0.638 0.638 0.638h1.275c0.352 0 0.638-0.285 0.638-0.638s-0.285-0.638-0.638-0.638h-1.275z"></path>
<path fill="#4d5ae5" style="fill: var(--color2, #4d5ae5)" d="M28.108 15.939c0.352 0 0.638-0.285 0.638-0.638s-0.285-0.638-0.638-0.638h-1.275c-0.352 0-0.638 0.286-0.638 0.638s0.286 0.638 0.638 0.638h1.275z"></path>
</symbol>
   
    </defs>
</svg>

<svg xmlns="http://www.w3.org/2000/svg" width="41" height="47" fill="none">
  <path fill="#8E8F99" fill-rule="evenodd" d="m6 0 7.008 6.676L0 6.67V39.06h34V26.676l7 6.669V0H6Zm27.692 25.892-19.87-18.93h19.87v18.93Zm-6.169 8.43H5.38V12.538h1.565v20.31h20.578v1.476ZM9.796 45.063l-.825-1.698H8.29l1.196 2.246v1.309h.617V45.61l1.197-2.246h-.679l-.825 1.697Zm3.042-1.698h.146l1.343 3.555h-.644l-.288-.832h-1.376l-.287.832h-.642l1.338-3.555H12.838Zm-.652 2.237h1.041l-.52-1.508-.52 1.508Zm4.296-.59a9.549 9.549 0 0 1-.077-.099 1.82 1.82 0 0 1-.213-.349.86.86 0 0 1-.075-.352c0-.185.038-.344.114-.478a.77.77 0 0 1 .325-.308c.14-.073.304-.11.49-.11.181 0 .337.037.467.11a.766.766 0 0 1 .35.984.896.896 0 0 1-.17.254 1.729 1.729 0 0 1-.248.218l-.247.18.704.83a1.407 1.407 0 0 0 .153-.664h.508c0 .173-.017.336-.051.49a1.523 1.523 0 0 1-.26.587l.52.615h-.68l-.207-.243a1.384 1.384 0 0 1-.365.2 1.624 1.624 0 0 1-.551.092c-.236 0-.44-.043-.613-.13a.97.97 0 0 1-.4-.356.975.975 0 0 1-.14-.52c0-.145.03-.272.09-.38.061-.111.143-.214.247-.309.097-.087.206-.174.33-.261Zm.292.358-.074.053a.914.914 0 0 0-.193.203.59.59 0 0 0-.034.6.515.515 0 0 0 .198.203.65.65 0 0 0 .32.074c.135 0 .266-.03.393-.09a1.06 1.06 0 0 0 .18-.113l-.79-.93Zm.14-.65.218-.146a.791.791 0 0 0 .22-.2.444.444 0 0 0 .066-.25.354.354 0 0 0-.374-.342.362.362 0 0 0-.339.21.502.502 0 0 0 .015.435c.037.077.088.157.154.242l.04.052Zm6.22 1.043h-.611a1.108 1.108 0 0 1-.112.393.554.554 0 0 1-.247.242.925.925 0 0 1-.422.083.748.748 0 0 1-.369-.086.707.707 0 0 1-.254-.242 1.192 1.192 0 0 1-.146-.373 2.365 2.365 0 0 1-.047-.488v-.3c0-.19.017-.357.052-.504.035-.148.088-.272.158-.373a.69.69 0 0 1 .262-.23.809.809 0 0 1 .366-.078c.17 0 .309.03.415.088.106.057.185.14.239.25.055.108.091.24.107.392h.61a1.53 1.53 0 0 0-.2-.632 1.128 1.128 0 0 0-.454-.432 1.509 1.509 0 0 0-.717-.157c-.223 0-.424.04-.603.118-.178.078-.33.19-.457.34a1.532 1.532 0 0 0-.293.529c-.067.206-.1.438-.1.693v.296c0 .255.033.486.098.693.066.207.163.383.288.53.125.145.276.257.451.337.176.078.374.117.594.117.286 0 .53-.052.73-.156.2-.105.355-.247.466-.428.11-.182.176-.39.195-.622Zm3.39-.523v-.195c0-.268-.035-.509-.107-.72a1.56 1.56 0 0 0-.3-.545 1.277 1.277 0 0 0-.467-.344c-.18-.08-.38-.12-.6-.12-.218 0-.418.04-.598.12-.18.078-.335.193-.467.344-.13.15-.23.332-.302.545a2.241 2.241 0 0 0-.108.72v.195c0 .269.036.51.108.723a1.6 1.6 0 0 0 .307.544c.132.15.288.265.466.345.181.078.38.117.599.117.22 0 .42-.04.6-.117.18-.08.336-.195.464-.345.13-.15.23-.33.3-.544.07-.213.105-.454.105-.723Zm-.612-.2v.2c0 .199-.02.375-.059.528a1.159 1.159 0 0 1-.166.388.73.73 0 0 1-.268.237.813.813 0 0 1-.364.078.807.807 0 0 1-.362-.078.772.772 0 0 1-.273-.237 1.167 1.167 0 0 1-.171-.388 2.144 2.144 0 0 1-.059-.528v-.2c0-.198.02-.373.059-.525.04-.153.095-.28.169-.383a.728.728 0 0 1 .27-.234.787.787 0 0 1 .362-.081c.135 0 .256.027.364.08.107.053.197.13.27.235.075.102.132.23.169.383.04.152.059.327.059.525Z" clip-rule="evenodd"/>
</svg>
<svg xmlns="http://www.w3.org/2000/svg" width="40" height="52" fill="none">
  <path fill="#8E8F99" fill-rule="evenodd" d="M17.114 2.935h-.137c-.21-.013-.42-.018-.63-.023h-.455c-.397 0-.802.01-1.204.03a.625.625 0 0 0-.091 0A28.275 28.275 0 0 0 4.08 5.625l-.432.208v22.142l1.012-.344c.888-.305 1.834-.58 2.813-.834a34.328 34.328 0 0 1 8.095-1.075v2.909c-.362.002-.713.012-1.065.03h-.084a32.36 32.36 0 0 0-6.228.956 31.634 31.634 0 0 0-7.42 2.892V4.112A29.727 29.727 0 0 1 8.557.946 29.793 29.793 0 0 1 15.892 0h.427c.511.013 1.01.036 1.478.071a21.09 21.09 0 0 1 3.655.583v2.863a22.623 22.623 0 0 0-3.542-.534l-.072-.006c-.247-.021-.494-.042-.724-.042Zm5.039 2.926c.635.049 1.293.072 1.958.072a31.467 31.467 0 0 0 7.713-.99A31.777 31.777 0 0 0 39.24 2.05v27.89a29.815 29.815 0 0 1-7.786 3.166 29.943 29.943 0 0 1-7.337.944 22.405 22.405 0 0 1-5.565-.656V5.322c.43.1.873.191 1.323.267.739.125 1.518.216 2.277.272Zm14.194.217-1.012.34c-.93.313-1.87.593-2.813.842a34.263 34.263 0 0 1-8.406 1.078c-.66 0-1.267-.018-1.854-.056l-.807-.053V31.006l.693.06c.642.057 1.305.085 1.973.085a26.884 26.884 0 0 0 6.62-.857 27.764 27.764 0 0 0 5.173-1.86l.433-.208V6.078Z" clip-rule="evenodd"/>
  <path fill="#8E8F99" d="M2.737 42.212a1.492 1.492 0 0 0-1.126-.455 1.673 1.673 0 0 0-.65.122 1.463 1.463 0 0 0-.832.842c-.08.2-.119.413-.116.628v3.794c-.01.267.042.533.149.778.09.195.219.368.38.509.151.127.329.22.52.27.185.051.376.078.567.078.211.002.42-.043.612-.132a1.599 1.599 0 0 0 .96-1.465v-.424h-.993v.338a.881.881 0 0 1-.058.338.608.608 0 0 1-.144.214.697.697 0 0 1-.415.145.503.503 0 0 1-.465-.204.899.899 0 0 1-.132-.508v-3.538c-.006-.196.036-.39.122-.567a.507.507 0 0 1 .485-.229.527.527 0 0 1 .443.214.806.806 0 0 1 .164.509v.328h.982v-.387a1.788 1.788 0 0 0-.121-.664 1.562 1.562 0 0 0-.332-.534ZM8.629 42.17a1.765 1.765 0 0 0-1.128-.418c-.202 0-.403.037-.592.107A1.559 1.559 0 0 0 6 42.7c-.1.231-.15.482-.145.735v3.638c-.006.256.043.51.145.745.09.196.22.37.384.509.152.14.33.25.524.32.19.07.39.106.592.107a1.714 1.714 0 0 0 1.128-.427c.158-.142.286-.315.374-.509.102-.234.151-.489.145-.745v-3.639a1.77 1.77 0 0 0-.145-.734 1.643 1.643 0 0 0-.374-.532Zm-.463 4.904a.654.654 0 0 1-.197.527.727.727 0 0 1-.934 0 .652.652 0 0 1-.197-.527v-3.639a.654.654 0 0 1 .197-.526.727.727 0 0 1 .934 0 .651.651 0 0 1 .197.526v3.64ZM16.367 48.7v-6.89h-.953l-1.253 3.647h-.017l-1.263-3.646h-.943v6.888h.984v-4.19h.018l.963 2.962h.491l.972-2.962h.017v4.19h.984ZM21.958 42.294c-.151-.17-.343-.3-.556-.377a2.184 2.184 0 0 0-.714-.107h-1.462v6.89h.982v-2.691h.505c.307.014.611-.051.886-.188a1.43 1.43 0 0 0 .539-.527c.113-.183.19-.387.225-.6a4.9 4.9 0 0 0 .053-.783c.01-.33-.023-.662-.096-.984a1.466 1.466 0 0 0-.362-.633Zm-.506 2.1a.867.867 0 0 1-.091.359.552.552 0 0 1-.253.241 1.006 1.006 0 0 1-.463.087h-.448v-2.342h.506a.942.942 0 0 1 .443.086.556.556 0 0 1 .23.254c.054.121.083.252.086.384v.458c0 .16.01.326 0 .473h-.01ZM26.608 41.81h-.805l-1.518 6.89h.982l.288-1.48h1.338l.289 1.48h.982l-1.556-6.89Zm-.906 4.471.483-2.497h.018l.48 2.497h-.981ZM32.95 45.96h-.018l-1.482-4.15h-.944v6.89h.982v-4.143h.02l1.5 4.142h.923v-6.888h-.981v4.15ZM38.948 41.81l-.79 2.74h-.02l-.79-2.74H36.31l1.348 3.978v2.911h.982v-2.911l1.348-3.977h-1.04ZM0 50.645h.473v1.327h.321v-1.328h.47v-.272H0v.273ZM3.977 50.372l-.62 1.6h.341l.132-.364h.637l.137.364h.35l-.636-1.6h-.341Zm-.05.967.217-.593.217.593h-.435ZM7.908 51.382h.37v.206a.613.613 0 0 1-.38.135.404.404 0 0 1-.34-.153.669.669 0 0 1-.118-.417c0-.356.154-.534.46-.534a.337.337 0 0 1 .362.255l.316-.062c-.068-.312-.293-.47-.678-.47a.804.804 0 0 0-.559.206.78.78 0 0 0-.23.615.873.873 0 0 0 .205.6.776.776 0 0 0 .607.235.96.96 0 0 0 .678-.255v-.63h-.693v.27ZM11.923 50.372h-.324v1.6h1.12V51.7h-.796v-1.328ZM15.318 50.372h-.324v1.6h.324v-1.6ZM18.637 51.44l-.656-1.068h-.313v1.6h.3v-1.045l.643 1.045h.322v-1.6h-.296v1.069ZM21.637 51.267h.797v-.272h-.797v-.35h.857v-.273h-1.181v1.6h1.214V51.7h-.89v-.433ZM28.912 51.003h-.63v-.63h-.32v1.599h.32v-.7h.63v.7h.322v-1.6h-.322v.631ZM31.93 51.267h.8v-.272h-.8v-.35h.86v-.273H31.61v1.6h1.212V51.7h-.89v-.433ZM36.023 51.268c.278-.044.42-.191.42-.445a.383.383 0 0 0-.157-.356.904.904 0 0 0-.468-.094h-.678v1.599h.322v-.669h.063a.431.431 0 0 1 .2.036c.047.029.086.069.114.117l.349.508h.384l-.195-.312a1.115 1.115 0 0 0-.354-.384Zm-.324-.222h-.237v-.401h.253a.84.84 0 0 1 .326.038.21.21 0 0 1-.015.325.913.913 0 0 1-.327.038ZM39.11 51.267h.796v-.272h-.796v-.35h.86v-.273h-1.184v1.6H40V51.7h-.89v-.433Z"/>
</svg>
<svg xmlns="http://www.w3.org/2000/svg" width="44" height="41" fill="none">
  <g fill="#8E8F99">
    <path d="M6.81 40.223c.016 0 .032.004.046.01a.123.123 0 0 1 .04.023l.22.208a1.82 1.82 0 0 1-.62.394c-.28.1-.58.148-.881.141a2.38 2.38 0 0 1-.829-.132 1.82 1.82 0 0 1-.623-.372 1.666 1.666 0 0 1-.403-.576 1.89 1.89 0 0 1-.141-.738 1.765 1.765 0 0 1 .152-.741c.096-.214.242-.41.428-.575a2.01 2.01 0 0 1 .662-.376 2.64 2.64 0 0 1 .853-.132c.27-.005.54.036.792.12.219.082.42.194.594.333l-.185.222a.179.179 0 0 1-.047.04.128.128 0 0 1-.075.017.183.183 0 0 1-.08-.024l-.1-.059-.137-.075a1.599 1.599 0 0 0-.436-.133 1.97 1.97 0 0 0-.329-.023 1.813 1.813 0 0 0-.613.099 1.41 1.41 0 0 0-.48.278c-.138.129-.244.28-.312.444a1.47 1.47 0 0 0-.113.585 1.5 1.5 0 0 0 .113.594 1.263 1.263 0 0 0 .765.715c.18.064.373.096.568.094.113.002.226-.005.337-.019a1.347 1.347 0 0 0 .729-.304.174.174 0 0 1 .105-.038ZM13.186 39.18c.004.25-.047.5-.149.734a1.59 1.59 0 0 1-.416.57c-.184.162-.406.29-.652.373a2.732 2.732 0 0 1-1.678 0 1.943 1.943 0 0 1-.65-.375 1.67 1.67 0 0 1-.419-.575 1.884 1.884 0 0 1 0-1.47c.094-.214.237-.41.42-.578.185-.157.406-.28.649-.36.54-.18 1.138-.18 1.678 0 .245.085.467.212.651.375a1.689 1.689 0 0 1 .566 1.306Zm-.58 0c.005-.2-.03-.4-.104-.59a1.213 1.213 0 0 0-.762-.719 1.971 1.971 0 0 0-1.22 0 1.314 1.314 0 0 0-.467.279 1.184 1.184 0 0 0-.298.44c-.14.385-.14.796 0 1.18.062.163.164.313.298.441.13.12.29.215.467.276.393.126.826.126 1.22 0 .177-.061.337-.156.466-.276.133-.128.233-.279.296-.441.074-.19.11-.39.104-.59ZM17.537 39.799l.057.132c.022-.047.042-.09.064-.132.021-.045.045-.088.072-.13l1.41-2.19c.028-.039.053-.062.08-.07a.388.388 0 0 1 .116-.011h.417v3.563h-.494v-2.73a.929.929 0 0 1 0-.123l-1.419 2.221a.203.203 0 0 1-.083.081.252.252 0 0 1-.121.03h-.08a.25.25 0 0 1-.122-.03.2.2 0 0 1-.082-.08l-1.46-2.236V40.954h-.478v-3.556h.417a.389.389 0 0 1 .116.012.155.155 0 0 1 .077.068l1.44 2.193c.029.04.053.084.073.128ZM22.845 39.622v1.334h-.552v-3.558h1.23c.233-.004.465.022.688.078.179.043.344.118.486.221a.92.92 0 0 1 .276.35c.065.145.097.299.094.455a.99.99 0 0 1-.4.811 1.42 1.42 0 0 1-.49.236c-.214.058-.439.086-.664.082l-.668-.01Zm0-.382h.668c.145.001.29-.017.427-.055a.94.94 0 0 0 .31-.153.673.673 0 0 0 .254-.535.592.592 0 0 0-.056-.29.687.687 0 0 0-.193-.243 1.202 1.202 0 0 0-.742-.191h-.668v1.467ZM30.265 40.961h-.437a.21.21 0 0 1-.121-.033.224.224 0 0 1-.072-.082l-.375-.861h-1.886l-.389.86a.196.196 0 0 1-.069.08.21.21 0 0 1-.124.036h-.436l1.656-3.563h.574l1.679 3.563Zm-2.733-1.323h1.557l-.657-1.45a2.332 2.332 0 0 1-.125-.335l-.063.186c-.02.057-.041.108-.06.15l-.652 1.45ZM32.65 37.414a.234.234 0 0 1 .082.064l2.416 2.686v-2.766h.494v3.563h-.276a.273.273 0 0 1-.114-.02.3.3 0 0 1-.088-.067l-2.412-2.684a.964.964 0 0 1 0 .123v2.648h-.494v-3.563h.292c.034-.001.068.004.1.016ZM39.71 39.544v1.415h-.552v-1.415l-1.526-2.146h.494a.201.201 0 0 1 .119.03c.03.023.055.05.074.08l.955 1.385a1.394 1.394 0 0 1 .168.316l.072-.153c.027-.056.059-.11.094-.163l.942-1.394a.376.376 0 0 1 .071-.076.187.187 0 0 1 .119-.035h.5l-1.53 2.156ZM17.263 31.417c.24.026.483.047.729.066 3.724-1.424 6.875-3.753 9.059-6.699 2.183-2.945 3.302-6.374 3.216-9.86l-4.104-3.507c.834 3.711.444 7.547-1.128 11.08-1.572 3.531-4.263 6.62-7.772 8.92Z"/>
    <path d="m15.797 31.254.11.019c3.75-2.292 6.61-5.492 8.208-9.187 1.599-3.695 1.863-7.714.759-11.539l-5.847-4.995c2.365 4.106 3.317 8.701 2.745 13.25-.572 4.55-2.644 8.869-5.974 12.452ZM35.625 19.042c-.993 3.83-3.406 7.284-6.879 9.85a21.958 21.958 0 0 1-3.268 2.004c2.828-.71 5.428-1.966 7.598-3.67 2.17-1.705 3.854-3.812 4.92-6.16l-2.37-2.024Z"/>
    <path d="m34.695 18.478-3.376-2.884c-.065 3.289-1.159 6.502-3.169 9.307-2.01 2.805-4.863 5.099-8.262 6.643h.017c.757 0 1.514-.039 2.266-.115 3.177-1.108 5.983-2.87 8.168-5.13 2.185-2.26 3.682-4.947 4.356-7.82ZM16.286 3.446 12.26 0c-3.6 1.189-6.697 3.278-8.884 5.996C1.187 8.713.01 11.93 0 15.229c.013 3.643 1.449 7.18 4.08 10.048 2.63 2.868 6.304 4.905 10.442 5.789 3.694-3.845 5.857-8.597 6.174-13.564.317-4.967-1.228-9.89-4.41-14.056ZM44 17.948c-.015-4.324-2.031-8.466-5.61-11.523-3.577-3.057-8.426-4.78-13.486-4.793a21.773 21.773 0 0 0-6.837 1.087l24.658 21.068A14.086 14.086 0 0 0 44 17.947Z"/>
  </g>
</svg>
<svg xmlns="http://www.w3.org/2000/svg" width="84" height="41" fill="none">
  <g fill="#8E8F99">
    <path d="M13.078 12.518h-.003c-2.385 0-4.32 1.744-4.32 3.894v.003c0 2.15 1.935 3.894 4.32 3.894h.003c2.386 0 4.32-1.743 4.32-3.894v-.003c0-2.15-1.934-3.894-4.32-3.894ZM44.961 11.273c-.006-2.987-1.325-5.85-3.668-7.964C38.95 1.197 35.775.007 32.46 0c-3.314.005-6.491 1.195-8.835 3.308-2.344 2.112-3.664 4.977-3.67 7.965v16.474s25.003-2.51 25.005-16.471v-.003ZM0 33.154c.006 2.079.924 4.071 2.554 5.541 1.63 1.47 3.84 2.299 6.145 2.305 2.305-.006 4.514-.834 6.144-2.304 1.63-1.47 2.548-3.46 2.555-5.54V21.695S0 23.442 0 33.154Zm8.699 2.054c-.45 0-.891-.12-1.266-.346a2.115 2.115 0 0 1-.839-.922 1.867 1.867 0 0 1-.13-1.186 2 2 0 0 1 .624-1.052 2.365 2.365 0 0 1 1.167-.562c.441-.08.9-.039 1.316.117.416.155.772.418 1.022.756s.384.735.384 1.141c.001.27-.057.539-.171.789-.114.25-.282.477-.493.669a2.31 2.31 0 0 1-.74.447 2.495 2.495 0 0 1-.874.157v-.008ZM24.609 31.515v4.266h-.879v-4.266h.879Zm1.7 1.822v.686h-1.94v-.686h1.94Zm.204-1.822v.688H24.37v-.688h2.144Zm4.014 2.033v.202c0 .325-.044.616-.132.873a1.92 1.92 0 0 1-.372.66c-.16.18-.352.317-.574.413a1.83 1.83 0 0 1-.736.143c-.267 0-.512-.048-.735-.143a1.648 1.648 0 0 1-.574-.413 1.93 1.93 0 0 1-.378-.66 2.696 2.696 0 0 1-.132-.873v-.202c0-.326.044-.617.132-.873a1.92 1.92 0 0 1 .372-.659c.162-.182.354-.32.574-.416.223-.096.468-.144.735-.144.27 0 .515.048.736.144.223.096.414.234.574.416.162.182.287.401.375.66.09.255.135.546.135.872Zm-.888.202v-.208c0-.226-.02-.425-.061-.597a1.295 1.295 0 0 0-.182-.434.784.784 0 0 0-.293-.264.838.838 0 0 0-.396-.09c-.148 0-.28.03-.395.09a.791.791 0 0 0-.29.264 1.333 1.333 0 0 0-.179.434 2.587 2.587 0 0 0-.061.597v.208c0 .225.02.424.061.598.041.172.102.317.182.437.08.117.178.206.293.266.115.06.247.091.395.091.149 0 .28-.03.396-.09a.786.786 0 0 0 .29-.267c.078-.12.138-.265.179-.437a2.61 2.61 0 0 0 .061-.598Zm3.741.914a.563.563 0 0 0-.035-.205.388.388 0 0 0-.123-.17 1.09 1.09 0 0 0-.255-.155 3.587 3.587 0 0 0-.425-.158 5.377 5.377 0 0 1-.55-.211 2.261 2.261 0 0 1-.457-.272 1.228 1.228 0 0 1-.31-.367 1.01 1.01 0 0 1-.112-.483 1 1 0 0 1 .117-.483c.078-.147.188-.272.328-.375.14-.106.307-.187.498-.244.194-.056.405-.085.636-.085.314 0 .589.057.823.17.234.114.416.269.545.466.13.197.196.423.196.677h-.873a.658.658 0 0 0-.079-.328.535.535 0 0 0-.234-.226.835.835 0 0 0-.393-.082.908.908 0 0 0-.38.07.507.507 0 0 0-.23.185.454.454 0 0 0-.075.258c0 .072.017.138.052.196a.594.594 0 0 0 .165.164c.072.051.16.099.266.144.106.045.228.089.366.132.233.07.437.149.613.237.177.088.326.186.445.296.12.11.209.233.27.372.06.139.09.296.09.472a1.024 1.024 0 0 1-.422.87c-.136.101-.3.178-.489.231-.19.053-.401.08-.636.08-.21 0-.419-.028-.624-.083a1.894 1.894 0 0 1-.56-.255 1.285 1.285 0 0 1-.398-.433c-.1-.176-.149-.384-.149-.624h.882c0 .133.02.245.061.337a.563.563 0 0 0 .173.222.743.743 0 0 0 .27.123c.105.026.22.038.345.038a.939.939 0 0 0 .375-.064.463.463 0 0 0 .293-.437Zm3.384-3.149v4.266h-.876v-4.266h.876Zm1.313 0v.688h-3.48v-.688h3.48Zm3.363 3.58v.686h-2.27v-.686h2.27Zm-1.983-3.58v4.266h-.88v-4.266h.88Zm1.687 1.737v.668h-1.975v-.668h1.975Zm.293-1.737v.688h-2.268v-.688h2.268Zm.516 0h1.59c.327 0 .607.049.841.146.237.098.418.243.545.434.127.191.19.427.19.706 0 .229-.038.425-.117.589a1.1 1.1 0 0 1-.325.407 1.685 1.685 0 0 1-.489.258l-.278.147h-1.383l-.006-.686h1.028a.805.805 0 0 0 .384-.082.537.537 0 0 0 .229-.229.703.703 0 0 0 .079-.34.773.773 0 0 0-.076-.354.514.514 0 0 0-.232-.228.855.855 0 0 0-.39-.08h-.712v3.578h-.878v-4.266Zm2.384 4.266-.972-1.902.928-.006.985 1.867v.04h-.94Zm4.615-1.52h-1.087v-.686h1.087a.892.892 0 0 0 .41-.082.527.527 0 0 0 .231-.235.86.86 0 0 0 0-.691.592.592 0 0 0-.231-.264.76.76 0 0 0-.41-.1h-.783v3.578h-.878v-4.266h1.66c.335 0 .62.06.86.182.24.119.423.284.55.495.127.21.19.452.19.723 0 .276-.063.514-.19.715-.127.201-.31.357-.55.466-.24.11-.525.164-.86.164Zm5.068.834v.686h-2.27v-.686h2.27Zm-1.983-3.58v4.266h-.88v-4.266h.88Zm1.687 1.737v.668H51.75v-.668h1.974Zm.293-1.737v.688H51.75v-.688h2.268Zm2.481 0v4.266h-.875v-4.266h.876Zm1.313 0v.688h-3.48v-.688h3.48Zm3.363 3.58v.686h-2.27v-.686h2.27Zm-1.983-3.58v4.266h-.879v-4.266h.879Zm1.687 1.737v.668h-1.974v-.668h1.974Zm.293-1.737v.688h-2.267v-.688h2.267Zm.516 0h1.59c.327 0 .607.049.842.146.236.098.418.243.545.434.126.191.19.427.19.706 0 .229-.04.425-.117.589a1.103 1.103 0 0 1-.325.407 1.687 1.687 0 0 1-.49.258l-.278.147h-1.383l-.006-.686h1.029a.805.805 0 0 0 .383-.082.538.538 0 0 0 .229-.229.704.704 0 0 0 .08-.34.771.771 0 0 0-.077-.354.514.514 0 0 0-.232-.228.855.855 0 0 0-.39-.08h-.711v3.578h-.879v-4.266Zm2.385 4.266-.973-1.902.929-.006.984 1.867v.04h-.94Zm3.68-1.117a.565.565 0 0 0-.036-.205.388.388 0 0 0-.123-.17 1.09 1.09 0 0 0-.255-.155 3.587 3.587 0 0 0-.424-.158 5.377 5.377 0 0 1-.551-.211 2.261 2.261 0 0 1-.457-.272 1.228 1.228 0 0 1-.31-.367 1.01 1.01 0 0 1-.112-.483 1 1 0 0 1 .117-.483c.078-.147.188-.272.328-.375.14-.106.307-.187.498-.244.194-.056.405-.085.636-.085.314 0 .589.057.823.17.235.114.416.269.545.466.131.197.196.423.196.677h-.873a.658.658 0 0 0-.079-.328.535.535 0 0 0-.234-.226.835.835 0 0 0-.393-.082.908.908 0 0 0-.38.07.507.507 0 0 0-.229.185.454.454 0 0 0-.076.258c0 .072.017.138.052.196a.594.594 0 0 0 .165.164c.072.051.16.099.266.144.106.045.228.089.366.132.233.07.437.149.613.237.177.088.326.186.445.296.12.11.209.233.27.372.06.139.09.296.09.472a1.024 1.024 0 0 1-.422.87c-.136.101-.3.178-.489.231-.19.053-.401.08-.635.08-.211 0-.42-.028-.624-.083a1.894 1.894 0 0 1-.56-.255 1.285 1.285 0 0 1-.399-.433c-.1-.176-.149-.384-.149-.624h.882c0 .133.02.245.061.337a.563.563 0 0 0 .173.222.743.743 0 0 0 .27.123c.105.026.22.038.346.038a.939.939 0 0 0 .374-.064.463.463 0 0 0 .293-.437Z"/>
  </g>
</svg>
<svg xmlns="http://www.w3.org/2000/svg" width="63" height="46" fill="none">
  <g fill="#8E8F99">
    <path d="M4.792 38.373c.245.274.376.616.37.968.012.229-.033.458-.132.67-.1.211-.25.4-.441.552a2.68 2.68 0 0 1-1.664.446H0v-6.132h2.865a2.646 2.646 0 0 1 1.587.407c.185.14.332.316.428.515.097.2.14.416.128.633.017.338-.101.67-.333.937a1.59 1.59 0 0 1-.871.48c.388.064.738.25.988.524Zm-3.431-.926h1.225c.278.019.554-.053.778-.203a.732.732 0 0 0 .21-.272.662.662 0 0 0 .053-.328.684.684 0 0 0-.055-.325.753.753 0 0 0-.204-.274 1.28 1.28 0 0 0-.802-.206H1.36v1.608ZM3.484 39.8a.77.77 0 0 0 .226-.281.694.694 0 0 0 .064-.342.705.705 0 0 0-.067-.346.782.782 0 0 0-.23-.283 1.366 1.366 0 0 0-.831-.222H1.36v1.687h1.301c.293.015.583-.06.822-.213ZM10.649 41.01l-1.594-2.397h-.6v2.396h-1.37v-6.132H9.68a2.752 2.752 0 0 1 1.807.521c.363.333.582.772.617 1.237.036.465-.115.926-.424 1.3-.32.33-.757.551-1.238.624l1.697 2.45h-1.49Zm-2.193-3.233h1.121c.779 0 1.168-.31 1.168-.929a.831.831 0 0 0-.063-.371.908.908 0 0 0-.223-.318 1.307 1.307 0 0 0-.882-.248H8.442l.014 1.866ZM18.143 39.775H15.41l-.483 1.234H13.49L16 34.946h1.554l2.499 6.063h-1.438l-.472-1.234Zm-.366-.928-.999-2.589-.998 2.588h1.997ZM27.523 41.01h-1.36l-3.052-4.17v4.17h-1.358v-6.133h1.358l3.051 4.194v-4.194h1.361v6.132ZM35.29 39.541a2.82 2.82 0 0 1-1.231 1.082c-.592.27-1.25.402-1.913.386h-2.423v-6.132h2.423a4.472 4.472 0 0 1 1.913.377c.521.237.95.61 1.231 1.07.28.499.426 1.05.426 1.609a3.28 3.28 0 0 1-.426 1.608Zm-1.557-.146a2.12 2.12 0 0 0 .602-1.464 2.12 2.12 0 0 0-.602-1.463 2.536 2.536 0 0 0-1.704-.522h-.945v3.97h.945a2.536 2.536 0 0 0 1.704-.521ZM18.994.767s17.567 5.97 17.195 14.61v14.614S18.635 24.017 19 15.377L18.994.767ZM51.839 26.57c3.318-2.056 7.155-3.33 11.161-3.703v-4.575c-4.616 1.601-8.531 4.505-11.161 8.277Z"/>
    <path d="M49.846 27.948C52.56 23.025 57.269 19.227 63 17.334V4.152s-25.018 8.505-24.489 20.809v20.806s1.115-.38 2.869-1.094c0-.665 0-1.336.08-2.01.518-5.712 3.534-11.005 8.386-14.715Z"/>
    <path d="M47.466 35.677a19.57 19.57 0 0 1 .876-4.26c-3.021 3.204-4.851 7.18-5.232 11.369-.036.395-.056.79-.066 1.198a75.86 75.86 0 0 0 4.812-2.282 19.43 19.43 0 0 1-.39-6.025ZM48.461 35.752a18.567 18.567 0 0 0 .31 5.455c6.835-3.682 14.515-9.37 14.219-16.246v-.6c-4.883.493-9.452 2.415-13.005 5.471a18.817 18.817 0 0 0-1.524 5.92Z"/>
  </g>
</svg>
<svg xmlns="http://www.w3.org/2000/svg" width="94" height="45" fill="none">
  <g fill="#8E8F99">
    <path d="M47.53 21.443a2.953 2.953 0 0 1-.607-1.992v-2.888c0-.885.201-1.558.603-2.018.402-.46 1.092-.69 2.07-.688.92 0 1.572.196 1.958.588.42.5.625 1.111.578 1.727v.68h-1.644v-.688c.006-.225-.01-.45-.048-.673a.652.652 0 0 0-.234-.4.951.951 0 0 0-.596-.155 1.007 1.007 0 0 0-.627.164.769.769 0 0 0-.272.44 3.342 3.342 0 0 0-.065.715v3.505a1.79 1.79 0 0 0 .211.984.772.772 0 0 0 .328.239c.133.051.28.07.425.055.21.015.42-.042.582-.159a.706.706 0 0 0 .245-.426c.038-.232.056-.467.051-.702v-.711h1.645v.65a2.643 2.643 0 0 1-.57 1.815c-.377.429-1.02.643-1.967.643-.946 0-1.661-.229-2.067-.705ZM54.376 21.473c-.415-.45-.623-1.105-.623-1.972v-3.038c0-.858.208-1.507.623-1.948.416-.44 1.11-.66 2.084-.658.967 0 1.658.22 2.073.658.416.441.627 1.09.627 1.948v3.038c0 .858-.211 1.516-.633 1.969-.423.452-1.11.678-2.067.678-.957 0-1.665-.229-2.084-.675Zm2.85-.729c.149-.282.217-.59.197-.899v-3.72a1.65 1.65 0 0 0-.194-.88.776.776 0 0 0-.335-.243.907.907 0 0 0-.434-.052.92.92 0 0 0-.435.053.789.789 0 0 0-.338.241c-.15.275-.218.578-.197.881v3.738c-.021.309.047.617.197.899.096.094.214.17.347.223a1.161 1.161 0 0 0 .845 0c.133-.053.251-.129.347-.223v-.018ZM61.138 13.946h1.77l1.332 5.605 1.361-5.605h1.723l.174 8.09h-1.274l-.136-5.622-1.314 5.622h-1.021l-1.362-5.643-.126 5.643h-1.287l.16-8.09ZM69.483 13.946h2.758c1.588 0 2.383.766 2.383 2.297 0 1.467-.837 2.2-2.51 2.198h-.939v3.596h-1.702l.01-8.091Zm2.356 3.458c.168.018.339.005.5-.04.162-.043.31-.117.436-.216a1.31 1.31 0 0 0 .245-.913 2.53 2.53 0 0 0-.081-.735.596.596 0 0 0-.126-.222.705.705 0 0 0-.215-.163 1.763 1.763 0 0 0-.76-.129h-.66v2.418h.66ZM77.079 13.946h1.828l1.876 8.09h-1.587l-.37-1.865h-1.631l-.382 1.866h-1.61l1.876-8.091Zm1.563 5.288-.637-3.396-.637 3.396h1.273ZM82.298 13.946h1.192l2.28 4.615v-4.615h1.414v8.09H86.05l-2.295-4.817v4.817h-1.46l.003-8.09ZM90.493 18.952l-1.896-4.995h1.597l1.157 3.208 1.086-3.208H94l-1.873 4.995v3.084h-1.634v-3.084ZM50.158 25.574v.423h-1.39v3.287h-.581v-3.287H46.79v-.423h3.367ZM54.512 29.284h-.45a.2.2 0 0 1-.125-.035.193.193 0 0 1-.075-.085l-.402-.881h-1.927l-.402.881a.243.243 0 0 1-.06.1.208.208 0 0 1-.127.035h-.45l1.703-3.71h.592l1.723 3.695Zm-2.819-1.377H53.3l-.68-1.51a2.703 2.703 0 0 1-.127-.35c-.024.07-.044.138-.064.197l-.062.156-.674 1.507ZM57.447 28.92c.107.005.214.005.32 0 .092-.008.183-.023.273-.044a2.1 2.1 0 0 0 .245-.068c.075-.026.15-.058.228-.09v-.835h-.681a.142.142 0 0 1-.05-.006.128.128 0 0 1-.042-.023.086.086 0 0 1-.026-.03.075.075 0 0 1-.008-.038v-.285h1.321v1.422a2.57 2.57 0 0 1-.718.303c-.14.035-.282.06-.426.076a5.153 5.153 0 0 1-.497.024 2.596 2.596 0 0 1-.858-.139 2.092 2.092 0 0 1-.681-.387 1.792 1.792 0 0 1-.44-.588 1.854 1.854 0 0 1-.156-.77 1.923 1.923 0 0 1 .153-.775c.098-.22.248-.42.44-.588.194-.167.426-.298.68-.385.292-.095.602-.141.913-.138.159 0 .317.01.473.032.139.02.274.051.405.094.12.039.234.088.34.147.105.058.204.123.297.194l-.163.23a.143.143 0 0 1-.056.05.17.17 0 0 1-.077.02.222.222 0 0 1-.106-.03 2.103 2.103 0 0 1-.166-.088 1.51 1.51 0 0 0-.229-.1 2.137 2.137 0 0 0-.313-.082 2.625 2.625 0 0 0-.432-.032 2.018 2.018 0 0 0-.657.103 1.44 1.44 0 0 0-.5.293c-.142.134-.25.29-.318.462a1.733 1.733 0 0 0 0 1.237c.075.174.191.333.341.467.14.127.31.227.497.294.217.064.446.089.674.073ZM62.874 28.861h1.86v.423h-2.428v-3.71h.582l-.014 3.287ZM66.667 29.284h-.582v-3.71h.582v3.71ZM68.832 25.591a.28.28 0 0 1 .09.068l2.488 2.797a.884.884 0 0 1 0-.132v-2.765h.507v3.726h-.293a.276.276 0 0 1-.126-.021.33.33 0 0 1-.092-.07l-2.485-2.795v2.886h-.487v-3.711h.303c.033 0 .066.006.096.017ZM76.204 25.574v.408H74.14v1.225h1.671v.394h-1.671v1.266h2.063v.408H73.54v-3.701h2.663ZM15.195 2.659l25.852 6.334v22.195l-25.852-6.33v-22.2ZM13.537.767v25.168l29.165 7.148V7.917L13.537.767Z"/>
    <path d="M29.168 44.767 0 37.613V12.447l29.168 7.15v25.17Z"/>
    <path d="m14.02 2.374 25.515 6.254-10.85 9.366-25.519-6.258L14.02 2.374ZM13.537.767 0 12.447l29.168 7.151 13.534-11.68L13.537.766ZM30.81 43.35l11.892-10.264-11.893-2.917v13.182Z"/>
  </g>
</svg>