<svg xmlns="http://www.w3.org/2000/svg" aria-hidden="true" style="position:absolute;width:0;height:0;overflow:hidden">
  <defs>
    <symbol id="icon-Client-6-2" viewBox="0 0 61 32">
      <path  d="M31.102 15.798a1.072 1.072 0 0 1-.22-.724v-1.05c0-.322.073-.567.219-.734s.397-.251.753-.25c.334 0 .572.071.712.214a.866.866 0 0 1 .21.628v.247h-.598v-.25a1.34 1.34 0 0 0-.017-.245.24.24 0 0 0-.085-.145.346.346 0 0 0-.217-.057.368.368 0 0 0-.228.06.28.28 0 0 0-.099.16 1.265 1.265 0 0 0-.024.26v1.275a.654.654 0 0 0 .077.358c.03.038.071.068.119.087s.102.026.154.02a.325.325 0 0 0 .212-.058.255.255 0 0 0 .089-.155c.014-.085.02-.17.019-.255v-.259h.598v.236a.958.958 0 0 1-.207.66c-.137.156-.371.234-.716.234s-.604-.083-.752-.256zM33.591 15.808c-.151-.163-.227-.402-.227-.717v-1.105c0-.312.076-.548.227-.708s.404-.24.758-.239c.352 0 .603.08.754.239s.228.396.228.708v1.105c0 .312-.077.551-.23.716s-.404.247-.752.247-.605-.083-.758-.246zm1.037-.265a.617.617 0 0 0 .072-.327v-1.353a.597.597 0 0 0-.071-.321c-.03-.039-.073-.069-.122-.088s-.104-.025-.158-.019c-.054-.006-.108 0-.158.019s-.092.049-.123.088a.593.593 0 0 0-.072.32v1.359a.599.599 0 0 0 .072.327c.035.034.078.062.126.081a.421.421 0 0 0 .308 0 .384.384 0 0 0 .126-.081v-.006zM36.05 13.071h.644l.484 2.038.495-2.038h.627l.063 2.942H37.9l-.049-2.045-.478 2.045h-.371l-.495-2.052-.046 2.052h-.468l.058-2.942zM39.085 13.071h1.003c.577 0 .867.278.867.835 0 .533-.304.8-.912.799h-.342v1.308h-.619l.004-2.942zm.856 1.258c.061.007.123.002.182-.014s.113-.043.158-.079a.476.476 0 0 0 .089-.332.96.96 0 0 0-.029-.267c-.009-.029-.024-.057-.046-.081s-.048-.044-.078-.059a.631.631 0 0 0-.276-.047h-.24v.879h.24zM41.847 13.071h.665l.682 2.942h-.577l-.135-.678h-.593l-.139.678h-.585l.682-2.942zm.568 1.923-.231-1.235-.232 1.235h.463zM43.745 13.071h.433l.829 1.678v-1.678h.514v2.942h-.412l-.835-1.752v1.752h-.531l.001-2.942zM46.725 14.892l-.689-1.816h.581l.421 1.167.395-1.167h.568l-.681 1.816v1.122h-.594v-1.122zM32.057 17.299v.154h-.505v1.195h-.212v-1.195h-.508v-.154h1.224zM33.641 18.649h-.163a.073.073 0 0 1-.046-.013.073.073 0 0 1-.027-.031l-.146-.32h-.701l-.146.32a.09.09 0 0 1-.022.036.073.073 0 0 1-.046.013h-.163l.619-1.349h.215l.626 1.344zm-1.025-.501h.584l-.248-.549a1.018 1.018 0 0 1-.046-.127l-.024.072-.022.057-.245.548zM34.708 18.516a.659.659 0 0 0 .215-.016.692.692 0 0 0 .172-.058v-.303h-.248c-.006 0-.012 0-.018-.002s-.011-.005-.015-.008-.007-.007-.009-.011-.003-.009-.003-.014V18h.48v.517a.907.907 0 0 1-.261.11 1.143 1.143 0 0 1-.155.028c-.06.006-.12.009-.181.009a.936.936 0 0 1-.312-.05.758.758 0 0 1-.248-.141.66.66 0 0 1-.16-.214.678.678 0 0 1-.057-.28.624.624 0 0 1 .216-.496.746.746 0 0 1 .248-.14 1.06 1.06 0 0 1 .332-.05c.058 0 .115.004.172.012a.805.805 0 0 1 .379.157l-.059.083c-.005.008-.012.014-.02.018s-.018.007-.028.007a.07.07 0 0 1-.038-.011.936.936 0 0 1-.061-.032.735.735 0 0 0-.354-.078.738.738 0 0 0-.239.037.485.485 0 0 0-.297.275.634.634 0 0 0 0 .45.53.53 0 0 0 .305.277.722.722 0 0 0 .245.027zM36.681 18.495h.676v.154h-.883V17.3h.212l-.005 1.195zM38.061 18.649h-.212V17.3h.212v1.349zM38.848 17.306a.11.11 0 0 1 .032.025l.905 1.017a.384.384 0 0 1 0-.048v-1.006h.184v1.355h-.107a.102.102 0 0 1-.046-.008.106.106 0 0 1-.033-.026l-.904-1.016v1.05h-.177V17.3h.11c.012 0 .024.002.035.006zM41.529 17.299v.148h-.751v.445h.608v.143h-.608v.46h.751v.148h-.968v-1.346h.968zM19.344 8.967l9.401 2.303v8.071l-9.401-2.302V8.967zm-.603-.688v9.152l10.605 2.599v-9.151l-10.605-2.6z" />
      <path d="m24.425 24.279-10.607-2.601v-9.151l10.607 2.6v9.152zM18.917 8.863l9.278 2.274-3.946 3.406-9.279-2.276 3.947-3.405zm-.176-.584-4.923 4.248 10.607 2.6 4.921-4.248-10.605-2.6zM25.021 23.764l4.325-3.733-4.325-1.061v4.793z" />
    </symbol>
    <symbol id="icon-Client-5-2" viewBox="0 0 61 32">
      <path  d="M21.379 21.954a.509.509 0 0 1 .134.352c.005.083-.012.167-.048.244s-.091.146-.16.201a.967.967 0 0 1-.605.162h-1.064v-2.23h1.042c.206-.012.41.04.577.148.067.051.121.115.156.187s.051.151.046.23a.484.484 0 0 1-.121.341.576.576 0 0 1-.317.174.62.62 0 0 1 .359.191zm-1.248-.337h.445a.457.457 0 0 0 .283-.074c.033-.027.059-.061.076-.099s.023-.078.02-.119a.258.258 0 0 0-.094-.218.465.465 0 0 0-.292-.075h-.438v.585zm.772.855c.036-.028.064-.063.082-.102s.026-.082.023-.124c.003-.043-.006-.086-.024-.126s-.047-.075-.083-.103a.497.497 0 0 0-.302-.081h-.467v.613h.473a.51.51 0 0 0 .299-.077zM23.509 22.912l-.58-.872h-.218v.872h-.499v-2.23h.944a.998.998 0 0 1 .657.19c.132.121.212.28.224.45s-.042.337-.154.473a.796.796 0 0 1-.45.227l.617.891h-.542zm-.798-1.175h.408c.283 0 .425-.113.425-.338.003-.046-.005-.092-.023-.135s-.046-.082-.081-.115a.477.477 0 0 0-.321-.09h-.413l.005.679zM26.234 22.464h-.993l-.175.449h-.523l.912-2.205h.565l.909 2.205h-.523l-.172-.449zm-.133-.338-.363-.941-.363.941h.726zM29.645 22.913h-.495l-1.11-1.516v1.516h-.494v-2.23h.494l1.11 1.525v-1.525h.495v2.23zM32.469 22.379a1.024 1.024 0 0 1-.448.393 1.601 1.601 0 0 1-.696.141h-.881v-2.23h.881c.241-.006.48.041.696.137.189.086.346.222.448.389a1.19 1.19 0 0 1 0 1.17zm-.566-.054c.141-.148.219-.337.219-.532s-.078-.384-.219-.532a.928.928 0 0 0-.62-.19h-.344v1.443h.344a.919.919 0 0 0 .62-.19zM26.543 8.279s6.388 2.171 6.252 5.313v5.314s-6.383-2.172-6.25-5.314l-.002-5.313zM38.487 17.662a9.378 9.378 0 0 1 4.059-1.346v-1.663c-1.679.582-3.102 1.638-4.059 3.01z"/>
      <path  d="M37.762 18.163c.987-1.79 2.699-3.171 4.783-3.86V9.51s-9.097 3.093-8.905 7.567v7.566s.405-.138 1.043-.398c0-.242 0-.486.029-.731.188-2.077 1.285-4.002 3.05-5.351z"/>
      <path  d="M36.897 20.973a7.108 7.108 0 0 1 .319-1.549c-1.099 1.165-1.764 2.611-1.902 4.134a6.23 6.23 0 0 0-.024.436 27.346 27.346 0 0 0 1.75-.83 7.081 7.081 0 0 1-.142-2.191zM37.259 21.001c-.06.663-.023 1.33.113 1.984 2.485-1.339 5.278-3.408 5.171-5.908v-.218c-1.776.179-3.437.878-4.729 1.989a6.853 6.853 0 0 0-.554 2.153z" />
    </symbol>
    <symbol id="icon-Client-4-2" viewBox="0 0 61 32">
      <path  d="M20.392 13.643h-.001c-.867 0-1.571.634-1.571 1.416v.001c0 .782.703 1.416 1.571 1.416h.001c.867 0 1.571-.634 1.571-1.416v-.001c0-.782-.703-1.416-1.571-1.416zM31.986 13.19c-.002-1.086-.482-2.128-1.334-2.896s-2.007-1.201-3.212-1.203c-1.205.002-2.361.434-3.213 1.203s-1.332 1.81-1.335 2.896v5.991s9.092-.913 9.093-5.99v-.001zM15.636 21.147c.002.756.336 1.48.929 2.015s1.396.836 2.234.838c.838-.002 1.641-.303 2.234-.838s.927-1.259.929-2.014V16.98s-6.327.636-6.327 4.167zm3.164.747c-.164 0-.324-.044-.46-.126s-.242-.199-.305-.335-.079-.287-.047-.432c.032-.145.111-.278.227-.382s.263-.176.424-.204c.161-.029.327-.014.479.043s.281.152.372.275a.696.696 0 0 1-.101.945c-.077.07-.168.125-.269.163s-.209.057-.318.057v-.003zM24.585 20.551v1.551h-.32v-1.551h.32zm.618.663v.249h-.705v-.249h.705zm.075-.663v.25h-.78v-.25h.78zm1.459.739v.074c0 .118-.016.224-.048.317s-.077.174-.135.24c-.058.065-.128.115-.209.15s-.169.052-.267.052c-.097 0-.186-.017-.267-.052s-.15-.085-.209-.15c-.059-.066-.105-.146-.137-.24s-.048-.2-.048-.317v-.074c0-.119.016-.224.048-.317s.077-.174.135-.24c.059-.066.129-.116.209-.151s.17-.052.267-.052c.098 0 .187.017.267.052s.151.085.209.151c.059.066.104.146.136.24s.049.199.049.317zm-.323.074v-.076c0-.082-.007-.155-.022-.217s-.037-.115-.066-.158-.065-.075-.107-.096c-.042-.022-.09-.033-.144-.033s-.102.011-.144.033c-.041.021-.076.053-.105.096s-.05.095-.065.158a.941.941 0 0 0-.022.217v.076c0 .082.007.154.022.217s.037.115.066.159a.29.29 0 0 0 .251.13.278.278 0 0 0 .249-.13c.028-.043.05-.096.065-.159s.022-.136.022-.217zm1.361.332c0-.028-.004-.053-.013-.075s-.023-.043-.045-.062c-.022-.019-.053-.038-.093-.056s-.091-.038-.154-.058c-.07-.023-.137-.048-.2-.077s-.118-.061-.166-.099c-.048-.038-.085-.083-.113-.133s-.04-.109-.04-.176c0-.065.014-.123.043-.176s.068-.099.119-.136c.051-.038.111-.068.181-.088s.147-.031.231-.031c.114 0 .214.021.299.062s.151.098.198.169a.433.433 0 0 1 .071.246h-.317c0-.045-.01-.085-.029-.119s-.047-.062-.085-.082a.303.303 0 0 0-.143-.03c-.055 0-.102.009-.138.026s-.065.039-.083.067a.17.17 0 0 0-.028.094c0 .026.006.05.019.071s.033.041.06.06.059.036.097.052c.038.016.083.032.133.048.084.026.159.054.223.086s.119.068.162.108c.043.04.076.085.098.135s.033.108.033.172a.368.368 0 0 1-.153.316c-.05.037-.109.065-.178.084a.869.869 0 0 1-.458-.001.671.671 0 0 1-.203-.093c-.06-.041-.109-.094-.145-.158s-.054-.14-.054-.227h.321c0 .048.007.089.022.122s.036.06.063.081c.028.021.06.035.098.045a.496.496 0 0 0 .262-.009.169.169 0 0 0 .107-.159zm1.23-1.145v1.551h-.319v-1.551h.319zm.477 0v.25h-1.266v-.25h1.266zm1.223 1.302v.249h-.826v-.249h.826zm-.721-1.302v1.551h-.32v-1.551h.32zm.614.632v.243h-.718v-.243h.718zm.106-.632v.25h-.825v-.25h.825zm.188 0h.578c.119 0 .221.018.306.053s.152.088.198.158.069.155.069.257c0 .083-.014.154-.043.214s-.067.108-.118.148a.627.627 0 0 1-.178.094l-.101.053H31.1l-.002-.249h.374c.056 0 .103-.01.14-.03s.065-.048.083-.083a.258.258 0 0 0 .029-.124c0-.05-.009-.093-.028-.129s-.047-.064-.084-.083-.085-.029-.142-.029h-.259v1.301h-.32v-1.551zm.867 1.551-.354-.691.338-.002.358.679v.015h-.342zm1.678-.553h-.395V21.3h.395c.061 0 .111-.01.149-.03s.066-.049.084-.085a.314.314 0 0 0 0-.251c-.018-.04-.046-.072-.084-.096s-.088-.036-.149-.036h-.284v1.301h-.32v-1.551h.604c.121 0 .225.022.312.066a.474.474 0 0 1 .269.443c0 .1-.023.187-.069.26s-.113.13-.2.169a.742.742 0 0 1-.312.06zm1.843.304v.249h-.826v-.249h.826zm-.721-1.302v1.551h-.32v-1.551h.32zm.613.632v.243h-.718v-.243h.718zm.107-.632v.25h-.825v-.25h.825zm.902 0v1.551h-.319v-1.551h.319zm.478 0v.25h-1.266v-.25h1.266zm1.222 1.302v.249h-.825v-.249h.825zm-.721-1.302v1.551h-.32v-1.551h.32zm.614.632v.243h-.718v-.243h.718zm.106-.632v.25h-.824v-.25h.824zm.188 0h.579c.119 0 .22.018.306.053s.152.088.198.158.069.155.069.257c0 .083-.014.154-.043.214s-.067.108-.118.148a.64.64 0 0 1-.178.094l-.101.053h-.503l-.002-.249h.374c.056 0 .103-.01.139-.03s.065-.048.083-.083a.258.258 0 0 0 .029-.124c0-.05-.009-.093-.028-.129s-.047-.064-.084-.083a.31.31 0 0 0-.141-.029h-.259v1.301h-.32v-1.551zm.867 1.551-.354-.691.338-.002.358.679v.015h-.342zm1.338-.406a.197.197 0 0 0-.013-.075c-.008-.023-.023-.043-.045-.062s-.053-.038-.093-.056a1.434 1.434 0 0 0-.154-.058c-.071-.023-.137-.048-.2-.077s-.118-.061-.166-.099c-.048-.038-.085-.083-.113-.133s-.04-.109-.04-.176c0-.065.014-.123.043-.176s.068-.099.119-.136a.565.565 0 0 1 .181-.088.812.812 0 0 1 .53.031.484.484 0 0 1 .198.169.433.433 0 0 1 .071.246h-.317a.23.23 0 0 0-.029-.119c-.018-.035-.047-.062-.085-.082s-.085-.03-.143-.03c-.055 0-.101.009-.139.026s-.064.039-.083.067a.162.162 0 0 0-.028.094c0 .026.006.05.019.071s.033.041.06.06c.026.018.059.036.097.052s.083.032.133.048c.085.026.159.054.223.086s.119.068.162.108.076.085.098.135c.022.05.033.108.033.172a.368.368 0 0 1-.153.316c-.049.037-.109.065-.178.084a.869.869 0 0 1-.458-.001A.671.671 0 0 1 39.6 22c-.06-.041-.109-.094-.145-.158s-.054-.14-.054-.227h.321c0 .048.007.089.022.122s.036.06.063.081c.028.021.06.035.098.045a.494.494 0 0 0 .261-.009.17.17 0 0 0 .107-.159z" />
    </symbol>
    <symbol id="icon-Client-3-2" viewBox="0 0 61 32">
      <path  d="M25.022 23.718a.042.042 0 0 1 .031.012l.08.076a.65.65 0 0 1-.226.143.884.884 0 0 1-.32.051.871.871 0 0 1-.301-.048.622.622 0 0 1-.425-.613.616.616 0 0 1 .211-.478.742.742 0 0 1 .241-.136.953.953 0 0 1 .31-.048.85.85 0 0 1 .288.044c.079.029.152.07.216.121l-.067.081a.061.061 0 0 1-.017.015c-.008.005-.018.007-.027.006s-.02-.004-.029-.009l-.036-.021-.05-.027a.78.78 0 0 0-.067-.027.706.706 0 0 0-.433.006.463.463 0 0 0-.288.262.539.539 0 0 0-.041.213.553.553 0 0 0 .041.216.457.457 0 0 0 .278.259.603.603 0 0 0 .207.034.987.987 0 0 0 .122-.007.494.494 0 0 0 .265-.111.07.07 0 0 1 .038-.014zM27.34 23.338a.654.654 0 0 1-.054.267c-.033.077-.084.148-.151.207s-.148.105-.237.136a.993.993 0 0 1-.61 0 .708.708 0 0 1-.236-.136.607.607 0 0 1-.153-.209.687.687 0 0 1 0-.534.62.62 0 0 1 .389-.341.978.978 0 0 1 .61 0c.089.031.17.077.237.136a.62.62 0 0 1 .206.475zm-.21 0a.544.544 0 0 0-.038-.214.446.446 0 0 0-.277-.261.717.717 0 0 0-.444 0 .483.483 0 0 0-.17.101.424.424 0 0 0-.108.16.62.62 0 0 0 0 .429.449.449 0 0 0 .278.26.732.732 0 0 0 .444 0 .442.442 0 0 0 .277-.26.547.547 0 0 0 .038-.214zM28.922 23.563l.021.048.023-.048c.008-.015.016-.032.026-.047l.513-.797c.01-.014.019-.022.029-.025a.12.12 0 0 1 .042-.004h.152v1.296h-.18v-1.038l-.516.808c-.007.012-.017.022-.03.029s-.028.011-.044.011h-.029c-.016 0-.031-.004-.044-.011s-.024-.017-.03-.03l-.531-.813v1.04h-.174v-1.293h.152a.146.146 0 0 1 .042.004.057.057 0 0 1 .028.025l.524.798a.3.3 0 0 1 .026.046zM30.853 23.499v.485h-.201V22.69h.448a.999.999 0 0 1 .25.028.502.502 0 0 1 .177.081.322.322 0 0 1 .1.127.383.383 0 0 1 .034.166.362.362 0 0 1-.145.296.526.526 0 0 1-.178.086.892.892 0 0 1-.242.03l-.243-.003zm0-.139h.243a.548.548 0 0 0 .156-.02.337.337 0 0 0 .112-.056.247.247 0 0 0 .092-.195c.002-.036-.005-.072-.02-.105s-.04-.064-.07-.088a.435.435 0 0 0-.27-.069h-.243v.533zM33.551 23.986h-.159a.08.08 0 0 1-.044-.012.083.083 0 0 1-.026-.03l-.136-.313H32.5l-.142.313a.076.076 0 0 1-.025.029.079.079 0 0 1-.045.013h-.159l.602-1.296h.209l.61 1.296zm-.994-.481h.566l-.239-.527a.893.893 0 0 1-.045-.122l-.023.068c-.007.021-.015.039-.022.055l-.237.527zM34.418 22.696a.1.1 0 0 1 .03.023l.878.977V22.69h.18v1.296h-.1c-.014 0-.028-.002-.041-.008s-.023-.014-.032-.024l-.877-.976v1.008h-.18V22.69h.106c.012 0 .025.002.036.006zM36.985 23.47v.515h-.201v-.515l-.555-.78h.18a.07.07 0 0 1 .043.011c.011.008.02.018.027.029l.347.503a.68.68 0 0 1 .061.115l.026-.056a.5.5 0 0 1 .034-.059l.343-.507a.133.133 0 0 1 .026-.027.066.066 0 0 1 .043-.013h.182l-.556.784zM28.823 20.515c.087.009.176.017.265.024 1.354-.518 2.5-1.365 3.294-2.436s1.201-2.318 1.17-3.585l-1.493-1.275c.303 1.349.162 2.744-.41 4.029s-1.55 2.408-2.826 3.244z" />
      <path  d="m28.29 20.456.04.007c1.364-.833 2.403-1.997 2.984-3.341s.677-2.805.276-4.196l-2.126-1.816c.86 1.493 1.206 3.164.998 4.818s-.961 3.225-2.172 4.528zM35.5 16.015c-.361 1.393-1.238 2.648-2.501 3.581a8.02 8.02 0 0 1-1.188.729c1.028-.258 1.974-.715 2.763-1.335s1.401-1.386 1.789-2.24l-.862-.736z"/>
      <path d="m35.162 15.81-1.228-1.049c-.023 1.196-.421 2.364-1.152 3.384s-1.768 1.854-3.004 2.416h.006c.275 0 .551-.014.824-.042 1.155-.403 2.175-1.044 2.97-1.865s1.339-1.799 1.584-2.844zM28.468 10.344l-1.465-1.253c-1.309.432-2.435 1.192-3.231 2.18s-1.223 2.158-1.227 3.357c.005 1.325.527 2.611 1.483 3.654s2.293 1.784 3.797 2.105c1.343-1.398 2.13-3.126 2.245-4.932s-.446-3.597-1.604-5.111zM38.545 15.617c-.005-1.572-.739-3.079-2.04-4.19s-3.064-1.738-4.904-1.743a7.911 7.911 0 0 0-2.486.395l8.967 7.661a5.13 5.13 0 0 0 .464-2.123z" />
    </symbol>
    <symbol id="icon-Client-2-3" viewBox="0 0 61 32">
      <path  d="M29.86 7.976h-.05c-.076-.005-.153-.006-.229-.008h-.166a9.211 9.211 0 0 0-.471.011 10.265 10.265 0 0 0-3.824.976l-.157.076v8.051l.368-.125c.323-.111.667-.211 1.023-.303a12.5 12.5 0 0 1 2.944-.391v1.058a9.775 9.775 0 0 0-.387.011h-.03c-.764.042-1.523.158-2.265.348a11.48 11.48 0 0 0-2.698 1.051V8.405a10.794 10.794 0 0 1 2.831-1.151 10.822 10.822 0 0 1 2.668-.344h.155c.186.005.367.013.537.026.448.032.893.102 1.329.212v1.041a8.124 8.124 0 0 0-1.288-.194l-.026-.002a3.048 3.048 0 0 0-.263-.015zm1.832 1.064c.231.018.47.026.712.026a11.398 11.398 0 0 0 2.805-.36c.939-.236 1.846-.59 2.697-1.052v10.142c-.885.516-1.838.903-2.831 1.151-.872.224-1.768.339-2.668.343a8.12 8.12 0 0 1-2.024-.239V8.843a8.518 8.518 0 0 0 1.309.196zm5.161.079-.368.124c-.338.114-.68.215-1.023.306-.999.257-2.026.388-3.057.392-.24 0-.461-.006-.674-.02l-.293-.019v8.283l.252.022c.234.02.475.03.718.03a9.727 9.727 0 0 0 2.407-.312 10.049 10.049 0 0 0 1.881-.676l.157-.076V9.119zM24.632 22.259a.537.537 0 0 0-.409-.165.614.614 0 0 0-.236.044.525.525 0 0 0-.303.306.595.595 0 0 0-.042.228v1.38a.655.655 0 0 0 .054.283.486.486 0 0 0 .328.283.794.794 0 0 0 .206.029.586.586 0 0 0 .571-.581v-.154h-.361v.123a.322.322 0 0 1-.021.123.242.242 0 0 1-.052.078.218.218 0 0 1-.075.04.275.275 0 0 1-.075.013.183.183 0 0 1-.17-.074.325.325 0 0 1-.048-.185v-1.286a.445.445 0 0 1 .044-.206.181.181 0 0 1 .176-.083c.031-.001.062.005.09.019s.052.034.071.059a.3.3 0 0 1 .06.185v.119h.357v-.141a.64.64 0 0 0-.164-.435zM26.774 22.243a.643.643 0 0 0-.41-.152.61.61 0 0 0-.405.152.58.58 0 0 0-.192.46v1.323a.645.645 0 0 0 .052.271.54.54 0 0 0 .14.185c.055.051.12.091.19.117.069.025.142.038.215.039s.146-.013.215-.039a.566.566 0 0 0 .383-.573v-1.323a.642.642 0 0 0-.052-.267.583.583 0 0 0-.136-.193zm-.168 1.784a.233.233 0 0 1-.072.192.266.266 0 0 1-.34 0 .241.241 0 0 1-.072-.192v-1.323a.233.233 0 0 1 .072-.192.266.266 0 0 1 .34 0 .241.241 0 0 1 .072.192v1.323zM29.588 24.618v-2.505h-.347l-.455 1.326h-.006l-.459-1.326h-.343v2.505h.358v-1.524h.006l.35 1.077h.178l.353-1.077h.006v1.524h.358zM31.621 22.289a.498.498 0 0 0-.202-.137.814.814 0 0 0-.259-.039h-.532v2.505h.357v-.978h.184a.654.654 0 0 0 .322-.068.52.52 0 0 0 .196-.191.614.614 0 0 0 .082-.218c.014-.094.02-.19.019-.285a1.436 1.436 0 0 0-.035-.358.526.526 0 0 0-.132-.23zm-.184.763a.325.325 0 0 1-.033.13.206.206 0 0 1-.092.088.362.362 0 0 1-.168.031h-.163v-.852h.184a.343.343 0 0 1 .161.031.208.208 0 0 1 .084.092c.02.044.03.091.031.14v.166c0 .058.004.118 0 .172h-.004zM33.312 22.113h-.293l-.552 2.505h.357l.105-.538h.487l.105.538h.357l-.566-2.505zm-.329 1.626.176-.908h.006l.175.908h-.357zM35.618 23.622h-.006l-.539-1.509h-.343v2.505h.357v-1.506h.007l.545 1.506h.336v-2.505h-.357v1.509zM37.799 22.113l-.287.996h-.007l-.287-.996h-.378l.49 1.446v1.059h.357v-1.059l.49-1.446h-.378zM23.636 25.325h.172v.483h.117v-.483h.171v-.099h-.46v.099zM25.082 25.226l-.225.582h.124l.048-.132h.232l.05.132h.127l-.231-.582h-.124zm-.018.352.079-.215.079.215h-.158zM26.512 25.593h.134v.075a.223.223 0 0 1-.138.049.145.145 0 0 1-.123-.056.241.241 0 0 1-.043-.152c0-.129.056-.194.167-.194a.123.123 0 0 1 .132.093l.115-.022c-.025-.114-.107-.171-.247-.171a.29.29 0 0 0-.203.075.28.28 0 0 0-.083.224.314.314 0 0 0 .075.218c.028.029.063.052.101.067s.079.021.12.018a.353.353 0 0 0 .247-.092v-.229h-.252v.098zM27.972 25.226h-.118v.582h.407v-.099h-.29v-.483zM29.206 25.226h-.118v.582h.118v-.582zM30.413 25.615l-.238-.388h-.114v.582h.109v-.38l.234.38h.117v-.582h-.108v.388zM31.504 25.552h.29v-.099h-.29v-.128h.312v-.099h-.43v.582h.442v-.099h-.324v-.157zM34.15 25.456h-.229v-.229h-.117v.582h.117v-.254h.229v.254h.117v-.582h-.117v.229zM35.247 25.552h.291v-.099h-.291v-.128h.313v-.099h-.43v.582h.441v-.099h-.324v-.157zM36.736 25.552c.101-.016.153-.069.153-.162a.14.14 0 0 0-.057-.13.333.333 0 0 0-.17-.034h-.247v.582h.117v-.243h.023a.153.153 0 0 1 .073.013.12.12 0 0 1 .041.043l.127.185h.14l-.071-.114a.402.402 0 0 0-.129-.14zm-.118-.081h-.086v-.146h.092c.04-.003.08.001.119.014.008.008.015.017.02.027s.007.022.006.033c0 .011-.004.022-.009.032s-.013.019-.022.025a.344.344 0 0 1-.119.014zM37.858 25.552h.289v-.099h-.289v-.128h.313v-.099h-.431v.582h.441v-.099h-.324v-.157z" />
    </symbol>
    <symbol id="icon-Client-2-2" viewBox="0 0 61 32">
      <path  d="M29.86 7.976h-.05c-.076-.005-.153-.006-.229-.008h-.166a9.211 9.211 0 0 0-.471.011 10.265 10.265 0 0 0-3.824.976l-.157.076v8.051l.368-.125c.323-.111.667-.211 1.023-.303a12.5 12.5 0 0 1 2.944-.391v1.058a9.775 9.775 0 0 0-.387.011h-.03c-.764.042-1.523.158-2.265.348a11.48 11.48 0 0 0-2.698 1.051V8.405a10.794 10.794 0 0 1 2.831-1.151 10.822 10.822 0 0 1 2.668-.344h.155c.186.005.367.013.537.026.448.032.893.102 1.329.212v1.041a8.124 8.124 0 0 0-1.288-.194l-.026-.002a3.048 3.048 0 0 0-.263-.015zm1.832 1.064c.231.018.47.026.712.026a11.398 11.398 0 0 0 2.805-.36c.939-.236 1.846-.59 2.697-1.052v10.142c-.885.516-1.838.903-2.831 1.151-.872.224-1.768.339-2.668.343a8.12 8.12 0 0 1-2.024-.239V8.843a8.518 8.518 0 0 0 1.309.196zm5.161.079-.368.124c-.338.114-.68.215-1.023.306-.999.257-2.026.388-3.057.392-.24 0-.461-.006-.674-.02l-.293-.019v8.283l.252.022c.234.02.475.03.718.03a9.727 9.727 0 0 0 2.407-.312 10.049 10.049 0 0 0 1.881-.676l.157-.076V9.119zM24.632 22.259a.537.537 0 0 0-.409-.165.614.614 0 0 0-.236.044.525.525 0 0 0-.303.306.595.595 0 0 0-.042.228v1.38a.655.655 0 0 0 .054.283.486.486 0 0 0 .328.283.794.794 0 0 0 .206.029.586.586 0 0 0 .571-.581v-.154h-.361v.123a.322.322 0 0 1-.021.123.242.242 0 0 1-.052.078.218.218 0 0 1-.075.04.275.275 0 0 1-.075.013.183.183 0 0 1-.17-.074.325.325 0 0 1-.048-.185v-1.286a.445.445 0 0 1 .044-.206.181.181 0 0 1 .176-.083c.031-.001.062.005.09.019s.052.034.071.059a.3.3 0 0 1 .06.185v.119h.357v-.141a.64.64 0 0 0-.164-.435zM26.774 22.243a.643.643 0 0 0-.41-.152.61.61 0 0 0-.405.152.58.58 0 0 0-.192.46v1.323a.645.645 0 0 0 .052.271.54.54 0 0 0 .14.185c.055.051.12.091.19.117.069.025.142.038.215.039s.146-.013.215-.039a.566.566 0 0 0 .383-.573v-1.323a.642.642 0 0 0-.052-.267.583.583 0 0 0-.136-.193zm-.168 1.784a.233.233 0 0 1-.072.192.266.266 0 0 1-.34 0 .241.241 0 0 1-.072-.192v-1.323a.233.233 0 0 1 .072-.192.266.266 0 0 1 .34 0 .241.241 0 0 1 .072.192v1.323zM29.588 24.618v-2.505h-.347l-.455 1.326h-.006l-.459-1.326h-.343v2.505h.358v-1.524h.006l.35 1.077h.178l.353-1.077h.006v1.524h.358zM31.621 22.289a.498.498 0 0 0-.202-.137.814.814 0 0 0-.259-.039h-.532v2.505h.357v-.978h.184a.654.654 0 0 0 .322-.068.52.52 0 0 0 .196-.191.614.614 0 0 0 .082-.218c.014-.094.02-.19.019-.285a1.436 1.436 0 0 0-.035-.358.526.526 0 0 0-.132-.23zm-.184.763a.325.325 0 0 1-.033.13.206.206 0 0 1-.092.088.362.362 0 0 1-.168.031h-.163v-.852h.184a.343.343 0 0 1 .161.031.208.208 0 0 1 .084.092c.02.044.03.091.031.14v.166c0 .058.004.118 0 .172h-.004zM33.312 22.113h-.293l-.552 2.505h.357l.105-.538h.487l.105.538h.357l-.566-2.505zm-.329 1.626.176-.908h.006l.175.908h-.357zM35.618 23.622h-.006l-.539-1.509h-.343v2.505h.357v-1.506h.007l.545 1.506h.336v-2.505h-.357v1.509zM37.799 22.113l-.287.996h-.007l-.287-.996h-.378l.49 1.446v1.059h.357v-1.059l.49-1.446h-.378zM23.636 25.325h.172v.483h.117v-.483h.171v-.099h-.46v.099zM25.082 25.226l-.225.582h.124l.048-.132h.232l.05.132h.127l-.231-.582h-.124zm-.018.352.079-.215.079.215h-.158zM26.512 25.593h.134v.075a.223.223 0 0 1-.138.049.145.145 0 0 1-.123-.056.241.241 0 0 1-.043-.152c0-.129.056-.194.167-.194a.123.123 0 0 1 .132.093l.115-.022c-.025-.114-.107-.171-.247-.171a.29.29 0 0 0-.203.075.28.28 0 0 0-.083.224.314.314 0 0 0 .075.218c.028.029.063.052.101.067s.079.021.12.018a.353.353 0 0 0 .247-.092v-.229h-.252v.098zM27.972 25.226h-.118v.582h.407v-.099h-.29v-.483zM29.206 25.226h-.118v.582h.118v-.582zM30.413 25.615l-.238-.388h-.114v.582h.109v-.38l.234.38h.117v-.582h-.108v.388zM31.504 25.552h.29v-.099h-.29v-.128h.312v-.099h-.43v.582h.442v-.099h-.324v-.157zM34.15 25.456h-.229v-.229h-.117v.582h.117v-.254h.229v.254h.117v-.582h-.117v.229zM35.247 25.552h.291v-.099h-.291v-.128h.313v-.099h-.43v.582h.441v-.099h-.324v-.157zM36.736 25.552c.101-.016.153-.069.153-.162a.14.14 0 0 0-.057-.13.333.333 0 0 0-.17-.034h-.247v.582h.117v-.243h.023a.153.153 0 0 1 .073.013.12.12 0 0 1 .041.043l.127.185h.14l-.071-.114a.402.402 0 0 0-.129-.14zm-.118-.081h-.086v-.146h.092c.04-.003.08.001.119.014.008.008.015.017.02.027s.007.022.006.033c0 .011-.004.022-.009.032s-.013.019-.022.025a.344.344 0 0 1-.119.014zM37.858 25.552h.289v-.099h-.289v-.128h.313v-.099h-.431v.582h.441v-.099h-.324v-.157z" />
    </symbol>
    <symbol id="icon-Client-1-3" viewBox="0 0 61 32">
      <path  d="m25.455 8.364 2.548 2.428-4.73-.003v11.779h12.364v-4.504l2.545 2.425V8.364H25.455zm10.07 9.415L28.3 10.895h7.225v6.884zm-2.244 3.066h-8.052v-7.922h.569v7.386h7.483v.536zm-6.446 3.905-.3-.617h-.248l.435.817v.476h.225v-.476l.435-.817h-.247l-.3.617zm1.106-.618h.053l.488 1.293h-.234l-.105-.303h-.5l-.104.303h-.233l.486-1.293h.149zm-.237.814h.378l-.189-.548-.189.548zm1.562-.214-.028-.036c-.033-.044-.059-.086-.077-.127s-.028-.084-.028-.128c0-.067.014-.125.042-.174s.067-.086.118-.112a.374.374 0 0 1 .178-.04c.066 0 .122.013.17.04s.085.061.11.104a.27.27 0 0 1 .039.142c0 .041-.007.078-.022.112s-.035.064-.061.092a.594.594 0 0 1-.091.079l-.09.065.256.302.023-.052a.52.52 0 0 0 .033-.189h.185c0 .063-.006.122-.019.178a.583.583 0 0 1-.095.213l.189.224h-.248l-.075-.088a.49.49 0 0 1-.133.072.606.606 0 0 1-.201.034c-.086 0-.16-.016-.223-.047s-.111-.075-.146-.13a.352.352 0 0 1-.018-.328.427.427 0 0 1 .09-.112c.035-.032.075-.063.12-.095zm.106.129-.027.019c-.031.025-.055.05-.07.074s-.025.044-.029.064a.22.22 0 0 0 .017.155.19.19 0 0 0 .072.074.234.234 0 0 0 .116.027.329.329 0 0 0 .209-.074l-.288-.338zm.051-.236.079-.053c.037-.025.064-.049.08-.073s.024-.054.024-.091a.129.129 0 0 0-.136-.124c-.03 0-.056.007-.076.021s-.036.032-.047.055a.183.183 0 0 0-.015.075c0 .027.007.054.02.083a.442.442 0 0 0 .071.107zm2.262.379h-.222c-.006.056-.02.104-.041.143s-.05.068-.09.088a.337.337 0 0 1-.154.03c-.052 0-.097-.01-.134-.031s-.068-.05-.092-.088c-.024-.038-.041-.083-.053-.136s-.017-.112-.017-.178v-.109c0-.069.006-.13.019-.183s.032-.099.058-.136c.025-.037.057-.064.095-.083s.082-.028.133-.028c.062 0 .112.011.151.032s.067.051.087.091c.02.04.033.087.039.143h.222c-.009-.086-.033-.163-.073-.23s-.094-.119-.165-.157a.547.547 0 0 0-.261-.057c-.081 0-.154.014-.219.043s-.12.07-.166.123c-.046.053-.082.117-.107.193s-.036.159-.036.252v.107c0 .093.012.177.036.252s.059.139.105.193c.046.053.1.093.164.122s.136.043.216.043c.104 0 .193-.019.265-.057s.129-.09.17-.155a.514.514 0 0 0 .071-.226zm1.233-.19v-.071c0-.098-.013-.185-.039-.262s-.062-.144-.109-.198c-.047-.055-.104-.097-.17-.125a.555.555 0 0 0-.436 0 .475.475 0 0 0-.17.125c-.047.054-.084.12-.11.198s-.039.164-.039.262v.071c0 .098.013.185.039.263s.064.144.112.198a.488.488 0 0 0 .388.168.484.484 0 0 0 .387-.168c.047-.054.084-.12.109-.198s.038-.165.038-.263zm-.223-.073v.073c0 .072-.007.136-.021.192s-.034.103-.06.141a.26.26 0 0 1-.23.114c-.049 0-.093-.009-.131-.028s-.072-.048-.099-.086c-.027-.038-.048-.086-.062-.141s-.021-.12-.021-.192v-.073c0-.072.007-.136.021-.191s.035-.102.061-.139c.027-.038.06-.066.099-.085s.082-.029.131-.029.093.01.132.029c.039.019.072.047.099.085s.048.084.061.139a.78.78 0 0 1 .021.191z" />
    </symbol>
    <symbol id="icon-linkedin-1-1" viewBox="0 0 32 32">
      <path  d="M31.992 32v-.001H32V20.263c0-5.741-1.236-10.164-7.948-10.164-3.227 0-5.392 1.771-6.276 3.449h-.093v-2.913h-6.364v21.364h6.627V21.42c0-2.785.528-5.479 3.977-5.479 3.399 0 3.449 3.179 3.449 5.657v10.401h6.62zM.528 10.636h6.635V32H.528V10.636zM3.843 0C1.722 0 0 1.721 0 3.843s1.721 3.879 3.843 3.879c2.121 0 3.843-1.757 3.843-3.879A3.846 3.846 0 0 0 3.843 0z" />
    </symbol>
    <symbol id="icon-facebook-1-1" viewBox="0 0 32 32">
      <path  d="M21.329 5.313h2.921V.225C23.746.156 22.013 0 19.994 0c-4.212 0-7.097 2.649-7.097 7.519V12H8.249v5.688h4.648V32h5.699V17.689h4.46l.708-5.688h-5.169V8.082c.001-1.644.444-2.769 2.735-2.769z" />
    </symbol>
    <symbol id="icon-twitter-1-1" viewBox="0 0 32 32">
      <path  d="M32 6.078c-1.19.522-2.458.868-3.78 1.036a6.523 6.523 0 0 0 2.886-3.626 13.11 13.11 0 0 1-4.16 1.588A6.574 6.574 0 0 0 22.154 3c-3.632 0-6.556 2.948-6.556 6.562 0 .52.044 1.02.152 1.496-5.454-.266-10.28-2.88-13.522-6.862a6.605 6.605 0 0 0-.898 3.316 6.57 6.57 0 0 0 2.914 5.452 6.479 6.479 0 0 1-2.964-.808v.072c0 3.188 2.274 5.836 5.256 6.446a6.548 6.548 0 0 1-1.72.216 5.8 5.8 0 0 1-1.242-.112c.85 2.598 3.262 4.508 6.13 4.57a13.182 13.182 0 0 1-8.134 2.798c-.538 0-1.054-.024-1.57-.09A18.469 18.469 0 0 0 10.064 29c12.072 0 18.672-10 18.672-18.668 0-.29-.01-.57-.024-.848A13.087 13.087 0 0 0 32 6.078z" />
    </symbol>
    <symbol id="icon-instagram-2-1" viewBox="0 0 32 32">
      <path  d="M31.969 9.408c-.075-1.7-.35-2.869-.744-3.882a7.803 7.803 0 0 0-1.85-2.838A7.867 7.867 0 0 0 26.543.844C25.524.45 24.361.175 22.661.1 20.948.019 20.404 0 16.06 0s-4.888.019-6.595.094c-1.7.075-2.869.35-3.882.744a7.803 7.803 0 0 0-2.838 1.85A7.867 7.867 0 0 0 .901 5.52C.507 6.539.232 7.702.157 9.402c-.081 1.713-.1 2.257-.1 6.601s.019 4.888.094 6.595c.075 1.7.35 2.869.744 3.882a7.895 7.895 0 0 0 1.85 2.838 7.867 7.867 0 0 0 2.832 1.844c1.019.394 2.182.669 3.882.744 1.706.075 2.25.094 6.595.094s4.888-.018 6.595-.094c1.7-.075 2.869-.35 3.882-.744a8.181 8.181 0 0 0 4.682-4.682c.394-1.019.669-2.182.744-3.882.075-1.707.094-2.251.094-6.595s-.006-4.888-.081-6.595zm-2.882 13.065c-.069 1.563-.331 2.407-.55 2.969a5.307 5.307 0 0 1-3.038 3.038c-.563.219-1.413.481-2.969.55-1.688.075-2.194.094-6.464.094s-4.782-.018-6.464-.094c-1.563-.069-2.407-.331-2.969-.55a4.926 4.926 0 0 1-1.838-1.194 4.974 4.974 0 0 1-1.194-1.838c-.219-.563-.481-1.413-.55-2.969-.075-1.688-.094-2.194-.094-6.464s.019-4.782.094-6.464c.069-1.563.331-2.407.55-2.969a4.868 4.868 0 0 1 1.2-1.838A4.974 4.974 0 0 1 6.639 3.55c.563-.219 1.413-.481 2.969-.55 1.688-.075 2.194-.094 6.464-.094 4.276 0 4.782.019 6.464.094 1.563.069 2.407.331 2.969.55a4.914 4.914 0 0 1 1.838 1.194 4.974 4.974 0 0 1 1.194 1.838c.219.563.481 1.413.55 2.969.075 1.688.094 2.194.094 6.464s-.019 4.77-.094 6.457z" />
      <path  d="M16.059 7.782c-4.538 0-8.22 3.682-8.22 8.22s3.682 8.22 8.22 8.22 8.22-3.682 8.22-8.22-3.682-8.22-8.22-8.22zm0 13.553a5.333 5.333 0 0 1 0-10.664 5.333 5.333 0 0 1 0 10.664zM26.524 7.457a1.919 1.919 0 1 1-3.838 0 1.919 1.919 0 0 1 3.838 0z" />
    </symbol>
          
             <svg aria-hidden="true" style="position: absolute; width: 0; height: 0; overflow: hidden;" version="1.1" xmlns="http://www.w3.org/2000/svg" xmlns:xlink="http://www.w3.org/1999/xlink">
<defs>
<symbol id="icon-antenna-1-2" viewBox="0 0 32 32">
<path fill="#2e2f42" style="fill: var(--color1, #2e2f42)" d="M30.773 22.098l-8.443-8.505 0.937-4.615c0.242 0.094 0.499 0.144 0.758 0.146h0.006c1.192 0.014 2.17-0.941 2.184-2.133s-0.941-2.17-2.133-2.184c-1.192-0.014-2.17 0.941-2.184 2.133-0.003 0.255 0.039 0.509 0.125 0.749l-4.96 0.605-8.091-8.133c-0.099-0.101-0.235-0.159-0.377-0.16-0.14 0.001-0.274 0.056-0.373 0.155l-1.513 1.504c-0.208 0.208-0.208 0.546 0 0.754l0.814 0.826c-3.153 5.798-2.129 12.978 2.519 17.663 0.043 0.041 0.092 0.074 0.146 0.098-0.034 0.18-0.051 0.364-0.052 0.547v6.187h-6.4c-1.472 0.002-2.665 1.195-2.667 2.667v1.067c0 0.295 0.239 0.533 0.533 0.533h24.533c0.295 0 0.533-0.239 0.533-0.533v-1.067c-0.002-1.472-1.195-2.665-2.667-2.667h-6.4v-2.742c1.003 0.21 2.024 0.317 3.049 0.32 2.458-0.003 4.877-0.615 7.040-1.783l0.818 0.823c0.099 0.101 0.235 0.159 0.377 0.16 0.14-0.001 0.274-0.056 0.373-0.155l1.513-1.504c0.208-0.208 0.208-0.546 0-0.754zM23.28 6.233c0.418-0.415 1.093-0.414 1.509 0.004s0.414 1.093-0.004 1.508c-0.2 0.199-0.47 0.31-0.752 0.31h-0.003c-0.589-0.003-1.064-0.483-1.061-1.072 0.002-0.282 0.115-0.552 0.314-0.751h-0.002zM22.024 9.738l-0.598 2.946-1.175-1.182 1.774-1.763zM21.419 8.836l-1.92 1.909-1.485-1.493 3.405-0.415zM24.004 28.8c0.884 0 1.6 0.716 1.6 1.6v0.533h-23.467v-0.533c0-0.884 0.716-1.6 1.6-1.6h20.267zM16.537 26.667v1.067h-5.333v-1.067h5.333zM11.204 25.6v-4.053c0-1.294 1.196-2.347 2.667-2.347s2.667 1.053 2.667 2.347v4.053h-5.333zM17.604 23.904v-2.357c0-1.882-1.675-3.413-3.733-3.413-1.331-0.020-2.576 0.657-3.281 1.786-4.058-4.274-4.971-10.645-2.279-15.887l18.602 18.708c-2.872 1.461-6.165 1.873-9.309 1.163zM28.893 23.22l-21.057-21.181 0.755-0.752 7.935 7.98c0.004 0 0.006 0.007 0.010 0.010l13.115 13.191-0.757 0.752z"></path>
<path fill="#4d5ae5" style="fill: var(--color2, #4d5ae5)" d="M13.876 20.267h-0.005c-0.884-0.001-1.601 0.714-1.602 1.598s0.714 1.601 1.598 1.602h0.005c0.884 0.001 1.601-0.714 1.602-1.598s-0.714-1.601-1.598-1.602zM14.249 22.245c-0.1 0.1-0.236 0.156-0.378 0.155-0.295-0.002-0.532-0.242-0.531-0.536 0.001-0.141 0.057-0.276 0.157-0.375s0.233-0.154 0.373-0.155c0.295 0.002 0.532 0.242 0.531 0.536-0.001 0.141-0.057 0.276-0.157 0.375h0.005z"></path>
</symbol>
<symbol id="icon-astronaut-1-1" viewBox="0 0 32 32">
<path fill="#4d5ae5" style="fill: var(--color2, #4d5ae5)" d="M31.974 4.524c-0.063-0.193-0.229-0.333-0.43-0.363l-1.91-0.278-0.855-1.731c-0.179-0.365-0.777-0.365-0.956 0l-0.855 1.731-1.91 0.278c-0.201 0.029-0.367 0.17-0.431 0.363-0.062 0.193-0.011 0.405 0.135 0.547l1.383 1.348-0.326 1.903c-0.034 0.2 0.048 0.402 0.212 0.522 0.166 0.121 0.382 0.135 0.562 0.040l1.709-0.899 1.709 0.899c0.078 0.041 0.164 0.061 0.249 0.061 0.11 0 0.221-0.034 0.314-0.102 0.164-0.119 0.246-0.322 0.212-0.522l-0.326-1.903 1.383-1.348c0.145-0.142 0.197-0.354 0.135-0.547zM29.511 5.851c-0.125 0.122-0.183 0.299-0.153 0.472l0.191 1.114-1-0.526c-0.078-0.041-0.163-0.061-0.249-0.061s-0.17 0.020-0.249 0.061l-1.001 0.526 0.191-1.114c0.030-0.173-0.028-0.349-0.153-0.472l-0.81-0.789 1.119-0.163c0.174-0.025 0.324-0.134 0.402-0.292l0.5-1.013 0.5 1.013c0.078 0.157 0.228 0.267 0.402 0.292l1.119 0.163-0.809 0.789z"></path>
<path fill="#4d5ae5" style="fill: var(--color2, #4d5ae5)" d="M26.134 20.522h-1.067v1.067h1.067v-1.067z"></path>
<path fill="#4d5ae5" style="fill: var(--color2, #4d5ae5)" d="M26.134 22.656h-1.067v1.067h1.067v-1.067z"></path>
<path fill="#4d5ae5" style="fill: var(--color2, #4d5ae5)" d="M27.2 21.589h-1.067v1.067h1.067v-1.067z"></path>
<path fill="#4d5ae5" style="fill: var(--color2, #4d5ae5)" d="M25.067 21.589h-1.067v1.067h1.067v-1.067z"></path>
<path fill="#4d5ae5" style="fill: var(--color2, #4d5ae5)" d="M22.4 26.389h-1.067v1.067h1.067v-1.067z"></path>
<path fill="#4d5ae5" style="fill: var(--color2, #4d5ae5)" d="M22.4 28.522h-1.067v1.067h1.067v-1.067z"></path>
<path fill="#4d5ae5" style="fill: var(--color2, #4d5ae5)" d="M23.467 27.456h-1.067v1.067h1.067v-1.067z"></path>
<path fill="#4d5ae5" style="fill: var(--color2, #4d5ae5)" d="M21.333 27.456h-1.067v1.067h1.067v-1.067z"></path>
<path fill="#4d5ae5" style="fill: var(--color2, #4d5ae5)" d="M16 24.256h-1.067v1.067h1.067v-1.067z"></path>
<path fill="#4d5ae5" style="fill: var(--color2, #4d5ae5)" d="M16 26.389h-1.067v1.067h1.067v-1.067z"></path>
<path fill="#4d5ae5" style="fill: var(--color2, #4d5ae5)" d="M17.067 25.322h-1.067v1.067h1.067v-1.067z"></path>
<path fill="#4d5ae5" style="fill: var(--color2, #4d5ae5)" d="M14.933 25.322h-1.067v1.067h1.067v-1.067z"></path>
<path fill="#4d5ae5" style="fill: var(--color2, #4d5ae5)" d="M5.867 6.122h-1.067v1.067h1.067v-1.067z"></path>
<path fill="#4d5ae5" style="fill: var(--color2, #4d5ae5)" d="M5.867 8.255h-1.067v1.067h1.067v-1.067z"></path>
<path fill="#4d5ae5" style="fill: var(--color2, #4d5ae5)" d="M6.933 7.189h-1.067v1.067h1.067v-1.067z"></path>
<path fill="#4d5ae5" style="fill: var(--color2, #4d5ae5)" d="M4.8 7.189h-1.067v1.067h1.067v-1.067z"></path>
<path fill="#2e2f42" style="fill: var(--color1, #2e2f42)" d="M24.715 14.159c-0.287-0.388-0.709-0.637-1.188-0.705-0.481-0.068-0.956 0.058-1.34 0.352l-1.252 0.96-1.898 1.417-1.358-0.541c2.421-1.086 4.114-3.508 4.114-6.32 0-3.823-3.123-6.933-6.961-6.933s-6.961 3.11-6.961 6.933c0 1.386 0.414 2.674 1.12 3.758l-2.764-0.024c-0.002 0-0.003 0-0.005 0-0.009 0-0.015 0.004-0.023 0.005-0.053 0.002-0.105 0.013-0.155 0.031-0.013 0.005-0.026 0.008-0.038 0.013-0.006 0.003-0.013 0.003-0.019 0.006l-3.233 1.596c-0.001 0-0.001 0-0.001 0.001l-1.893 0.911c-0.021 0.009-0.042 0.021-0.063 0.035-0.755 0.502-1.012 1.489-0.598 2.295 0.22 0.429 0.595 0.745 1.056 0.889 0.178 0.055 0.359 0.083 0.539 0.083 0.29 0 0.577-0.071 0.839-0.211l1.388-0.738 2.264-1.169 1.357-0.008-5.442 5.416c-0.001 0.001-0.001 0.001-0.002 0.001l-1.339 1.333c-0.316 0.315-0.49 0.732-0.49 1.178s0.174 0.863 0.49 1.179c0.325 0.323 0.752 0.485 1.179 0.485s0.854-0.162 1.18-0.485l1.314-1.309 1.741-1.3 0.901 0.897-1.762 1.754c-0 0.001-0.001 0.001-0.002 0.001l-1.339 1.333c-0.316 0.315-0.49 0.732-0.49 1.178s0.174 0.863 0.49 1.179c0.325 0.323 0.753 0.485 1.18 0.485s0.855-0.162 1.18-0.485l3.482-3.467c0.001-0.001 0.001-0.001 0.001-0.002l1.010-1-0.004-0.004c0.006-0.006 0.015-0.009 0.022-0.015l5.166-5.658 3.471 0.494c0.025 0.004 0.050 0.005 0.075 0.005 0.065 0 0.127-0.015 0.187-0.038 0.018-0.006 0.033-0.015 0.050-0.023 0.019-0.010 0.039-0.015 0.058-0.027l3.213-2.133c0.012-0.008 0.018-0.021 0.029-0.029 0.013-0.010 0.029-0.014 0.041-0.026l1.271-1.191c0.662-0.62 0.753-1.635 0.212-2.362zM2.13 17.77c-0.173 0.093-0.37 0.111-0.558 0.052-0.187-0.058-0.338-0.186-0.427-0.358-0.161-0.314-0.068-0.695 0.214-0.902l1.314-0.632 0.449 1.313-0.992 0.527zM5.628 15.942l-1.548 0.8-0.439-1.283 2.027-1.001-0.040 1.484zM20.727 9.322c0 0.918-0.219 1.785-0.599 2.559l-4.181-1.899c-0.044-0.573-0.341-1.075-0.788-1.388l1.464-4.86c2.378 0.756 4.105 2.974 4.105 5.588zM8.938 9.322c0-3.235 2.644-5.867 5.894-5.867 0.253 0 0.5 0.021 0.745 0.052l-1.432 4.754c-0.019-0.001-0.037-0.006-0.057-0.006-1.033 0-1.873 0.837-1.873 1.867s0.84 1.867 1.873 1.867c0.694 0 1.294-0.383 1.618-0.945l3.862 1.755c-1.075 1.446-2.795 2.39-4.737 2.39-3.25 0-5.894-2.632-5.894-5.867zM14.894 10.122c0 0.441-0.362 0.8-0.806 0.8s-0.806-0.359-0.806-0.8c0-0.441 0.362-0.8 0.806-0.8s0.806 0.359 0.806 0.8zM2.465 25.146c-0.236 0.234-0.619 0.234-0.854 0.001-0.114-0.114-0.176-0.263-0.176-0.423s0.062-0.309 0.176-0.421l0.962-0.958 0.851 0.848-0.959 0.955zM5.679 28.88c-0.236 0.234-0.619 0.235-0.855 0.001-0.114-0.114-0.176-0.263-0.176-0.423s0.062-0.309 0.176-0.421l0.963-0.959 0.852 0.848-0.96 0.955zM9.16 25.411c-0.001 0-0.001 0-0.002 0.001l-1.765 1.76-0.852-0.848 1.763-1.755c0 0 0 0 0-0s0.001-0.001 0.002-0.001c0.040-0.040 0.065-0.088 0.090-0.135 0.007-0.014 0.020-0.026 0.026-0.040 0.017-0.041 0.019-0.085 0.026-0.129 0.003-0.025 0.014-0.047 0.014-0.073 0-0.036-0.013-0.070-0.020-0.106-0.006-0.032-0.006-0.065-0.019-0.095-0.020-0.050-0.055-0.094-0.091-0.138-0.010-0.012-0.014-0.027-0.025-0.038 0 0 0 0-0.001 0s-0.001-0.002-0.001-0.002l-1.607-1.6c-0.017-0.017-0.039-0.024-0.058-0.038-0.028-0.022-0.055-0.042-0.087-0.058-0.030-0.015-0.061-0.024-0.093-0.033-0.034-0.010-0.067-0.017-0.103-0.020-0.033-0.002-0.063 0.001-0.095 0.005-0.036 0.004-0.069 0.009-0.104 0.020-0.034 0.011-0.063 0.027-0.094 0.045-0.020 0.011-0.042 0.015-0.061 0.029l-1.773 1.324-0.901-0.897 2.399-2.386 4.361 4.289-0.928 0.919zM15.979 18.394c-0.015-0.002-0.030 0.004-0.045 0.003-0.039-0.002-0.076 0.001-0.115 0.007-0.030 0.005-0.059 0.011-0.088 0.021-0.034 0.012-0.065 0.028-0.097 0.047-0.030 0.018-0.057 0.037-0.083 0.061-0.013 0.011-0.028 0.017-0.040 0.029l-4.698 5.146-4.328-4.257 2.833-2.818c0.209-0.208 0.21-0.546 0.002-0.755-0.105-0.105-0.243-0.157-0.381-0.156v-0.001l-2.219 0.013 0.028-1.607 3.104 0.027c1.265 1.294 3.029 2.101 4.981 2.101 0.437 0 0.864-0.045 1.279-0.123 0.040 0.032 0.079 0.065 0.13 0.085l2.41 0.96 0.152 0.758 0.178 0.885-3.003-0.427zM20.020 18.572l-0.313-1.558 1.446-1.080 0.947 1.257-2.080 1.381zM23.774 15.741l-0.838 0.785-0.931-1.236 0.831-0.637c0.155-0.119 0.351-0.168 0.543-0.143 0.193 0.027 0.364 0.128 0.48 0.284 0.217 0.292 0.18 0.699-0.085 0.947z"></path>
<path fill="#2e2f42" style="fill: var(--color1, #2e2f42)" d="M13.602 18.544l-2.143-2.133c-0.207-0.207-0.545-0.207-0.753 0l-2.142 2.133c-0.1 0.101-0.157 0.236-0.157 0.378s0.056 0.278 0.157 0.378l2.142 2.133c0.104 0.103 0.241 0.155 0.377 0.155s0.273-0.052 0.376-0.155l2.143-2.133c0.1-0.1 0.157-0.236 0.157-0.378s-0.057-0.278-0.157-0.378zM11.083 20.303l-1.387-1.381 1.387-1.381 1.387 1.381-1.387 1.381z"></path>
<path fill="#2e2f42" style="fill: var(--color1, #2e2f42)" d="M17.164 5.071l-0.258 1.036c0.071 0.018 1.738 0.452 1.738 2.149h1.067c-0-2.017-1.666-2.965-2.547-3.185z"></path>
<path fill="#2e2f42" style="fill: var(--color1, #2e2f42)" d="M19.711 9.322h-1.067v1.067h1.067v-1.067z"></path>
</symbol>
<symbol id="icon-diagram-1" viewBox="0 0 32 32">
<path fill="#4d5ae5" style="fill: var(--color2, #4d5ae5)" d="M14.926 14.965h1.066v4.798h-1.066v-4.797z"></path>
<path fill="#4d5ae5" style="fill: var(--color2, #4d5ae5)" d="M19.19 17.097h1.066v2.665h-1.066v-2.665z"></path>
<path fill="#4d5ae5" style="fill: var(--color2, #4d5ae5)" d="M10.661 18.696h1.066v1.066h-1.066v-1.066z"></path>
<path fill="#4d5ae5" style="fill: var(--color2, #4d5ae5)" d="M7.463 18.163h1.066v1.599h-1.066v-1.599z"></path>
<path fill="#2e2f42" style="fill: var(--color1, #2e2f42)" d="M1.599 28.291h25.587c0.883 0 1.599-0.716 1.599-1.599v-2.132c0-0.883-0.716-1.599-1.599-1.599h-0.533v-13.293l3.028-2.868c0.703 0.346 1.553 0.136 2.013-0.499s0.396-1.508-0.152-2.068-1.42-0.644-2.065-0.198c-0.644 0.446-0.873 1.292-0.542 2.002l-2.281 2.163v-1.23c0-0.883-0.716-1.599-1.599-1.599h-21.322c-0.883 0-1.599 0.716-1.599 1.599v15.992h-0.533c-0.883 0-1.599 0.716-1.599 1.599v2.132c0 0.883 0.716 1.599 1.599 1.599zM30.384 4.837c0.294 0 0.533 0.239 0.533 0.533s-0.239 0.533-0.533 0.533c-0.294 0-0.533-0.239-0.533-0.533s0.239-0.533 0.533-0.533zM3.198 6.969c0-0.294 0.239-0.533 0.533-0.533h21.322c0.294 0 0.533 0.239 0.533 0.533v2.239l-1.066 1.013v-2.186c0-0.294-0.239-0.533-0.533-0.533h-19.19c-0.294 0-0.533 0.239-0.533 0.533v13.326c0 0.294 0.239 0.533 0.533 0.533h19.19c0.294 0 0.533-0.239 0.533-0.533v-9.674l1.066-1.010v12.284h-22.388v-15.992zM7.996 13.899c-0.721-0.002-1.354 0.478-1.546 1.174s0.105 1.433 0.725 1.801c0.62 0.368 1.41 0.276 1.928-0.226l1.853 0.93c0.215 0.108 0.476 0.057 0.636-0.123l3.939-4.431 3.872 2.901c0.208 0.156 0.498 0.139 0.686-0.039l3.365-3.188v8.131h-18.124v-12.26h18.124v2.66l-3.771 3.572-3.904-2.927c-0.222-0.166-0.534-0.135-0.718 0.072l-3.993 4.493-1.493-0.746c0.011-0.064 0.018-0.129 0.020-0.193 0-0.883-0.716-1.599-1.599-1.599zM8.529 15.498c0 0.294-0.239 0.533-0.533 0.533s-0.533-0.239-0.533-0.533c0-0.294 0.239-0.533 0.533-0.533s0.533 0.239 0.533 0.533zM11.727 24.027h5.331v0.533c0 0.294-0.239 0.533-0.533 0.533h-4.264c-0.294 0-0.533-0.239-0.533-0.533v-0.533zM1.066 24.56c0-0.294 0.239-0.533 0.533-0.533h9.062v0.533c0 0.883 0.716 1.599 1.599 1.599h4.264c0.883 0 1.599-0.716 1.599-1.599v-0.533h9.062c0.294 0 0.533 0.239 0.533 0.533v2.132c0 0.294-0.239 0.533-0.533 0.533h-25.587c-0.294 0-0.533-0.239-0.533-0.533v-2.132z"></path>
</symbol>
<symbol id="icon-clock-1-1" viewBox="0 0 32 32">
<path fill="#2e2f42" style="fill: var(--color1, #2e2f42)" d="M31.297 15.301c-0.002-8.452-6.855-15.303-15.308-15.301s-15.303 6.855-15.301 15.308c0.001 6.658 4.307 12.551 10.649 14.576 0.061 0.019 0.124 0.029 0.187 0.029 0.121-0 0.239-0.032 0.342-0.094 0.135-0.080 0.236-0.207 0.283-0.356l3.865-12.25c1.057-0.005 1.909-0.866 1.903-1.923s-0.866-1.909-1.923-1.903c-0.284 0.001-0.565 0.067-0.82 0.191l-5.106-5.107c-0.253-0.245-0.657-0.238-0.902 0.016-0.239 0.247-0.239 0.639 0 0.886l5.103 5.109c-0.392 0.799-0.168 1.764 0.536 2.309l-3.683 11.673c-7.278-2.681-11.004-10.754-8.323-18.032s10.754-11.004 18.032-8.323c7.278 2.681 11.004 10.754 8.323 18.032-1.31 3.556-4.001 6.431-7.462 7.973l-0.398-1.874c-0.073-0.345-0.411-0.565-0.756-0.492-0.109 0.023-0.209 0.074-0.293 0.148l-3.837 3.426c-0.263 0.234-0.287 0.637-0.052 0.9 0.076 0.085 0.174 0.149 0.283 0.184l4.899 1.564c0.335 0.108 0.694-0.077 0.802-0.412 0.034-0.106 0.040-0.219 0.017-0.328l-0.391-1.839c5.664-2.388 9.342-7.942 9.329-14.089zM15.992 14.664c0.352 0 0.638 0.286 0.638 0.638s-0.286 0.638-0.638 0.638c-0.352 0-0.638-0.285-0.638-0.638s0.285-0.638 0.638-0.638zM18.093 29.528l2.184-1.948 0.603 2.84-2.787-0.892z"></path>
<path fill="#4d5ae5" style="fill: var(--color2, #4d5ae5)" d="M15.354 3.185v1.275c0 0.352 0.285 0.638 0.638 0.638s0.638-0.285 0.638-0.638v-1.275c0-0.352-0.286-0.638-0.638-0.638s-0.638 0.286-0.638 0.638z"></path>
<path fill="#4d5ae5" style="fill: var(--color2, #4d5ae5)" d="M3.876 14.664c-0.352 0-0.638 0.286-0.638 0.638s0.285 0.638 0.638 0.638h1.275c0.352 0 0.638-0.285 0.638-0.638s-0.285-0.638-0.638-0.638h-1.275z"></path>
<path fill="#4d5ae5" style="fill: var(--color2, #4d5ae5)" d="M28.108 15.939c0.352 0 0.638-0.285 0.638-0.638s-0.285-0.638-0.638-0.638h-1.275c-0.352 0-0.638 0.286-0.638 0.638s0.286 0.638 0.638 0.638h1.275z"></path>
</symbol>
   
    </defs>
</svg>
